<?xml version="1.0" encoding="UTF-8"?>
<!DOCTYPE svg PUBLIC "-//W3C//DTD SVG 1.1//EN" "http://www.w3.org/Graphics/SVG/1.1/DTD/svg11.dtd">
<!-- Creator: CorelDRAW -->
<svg xmlns="http://www.w3.org/2000/svg" xml:space="preserve" width="316" height="316" style="shape-rendering:geometricPrecision; text-rendering:geometricPrecision; image-rendering:optimizeQuality; fill-rule:evenodd; clip-rule:evenodd"
viewBox="0 0 125.523 125.523"
 xmlns:xlink="http://www.w3.org/1999/xlink">
 <defs>
  <style type="text/css">
   <![CDATA[
    .str2 {stroke:#1F1A17;stroke-width:0.0762}
    .str1 {stroke:white;stroke-width:2.4}
    .str3 {stroke:white;stroke-width:4}
    .str0 {stroke:black;stroke-width:5.5}
    .fil1 {fill:none}
    .fil2 {fill:#1F1A17}
    .fil0 {fill:#FFCC00}
    .fil3 {fill:white}
    .fil4 {fill:white;fill-rule:nonzero}
   ]]>
  </style>
 </defs>
 <g id="Layer_x0020_1">
  <metadata id="CorelCorpID_0Corel-Layer"/>
  <g id="_80417584">
   <ellipse id="_59073560" class="fil0 str0" cx="62.7617" cy="62.7988" rx="60.0115" ry="60.0116"/>
   <path id="_58995608" class="fil1 str1" d="M63.0474 7.8257c-30.3461,0 -54.9556,24.6097 -54.9556,54.9558 0,30.346 24.6095,54.9557 54.9556,54.9557 30.3459,0 54.9555,-24.6097 54.9555,-54.9557 0,-30.3461 -24.6096,-54.9558 -54.9555,-54.9558z"/>
   <path id="_58988944" class="fil2 str2" d="M95.4994 23.4528c-7.1535,5.4554 -12.8641,7.8457 -8.5687,-5.5844 -8.1012,8.4042 -10.2558,8.5686 -9.7669,-3.9299 -3.1697,6.7053 -8.0353,13.8784 -9.2509,-1.5641 -1.1984,6.1397 -5.0699,16.3678 -9.6724,-0.6061 -0.9696,2.4518 -0.6938,19.0165 -9.7837,1.9555 0.4269,8.8593 -0.5073,15.5015 -9.5246,3.8374 2.4071,10.47 2.3163,14.1189 -8.8952,5.2549 1.5615,3.5927 9.7979,17.3249 -7.3723,7.4557 9.0981,11.0299 5.1381,11.38 -5.5888,9.0249 10.9043,8.2614 7.585,9.9262 -3.646,9.3659 5.5889,3.3601 15.594,7.1096 -1.3304,9.6427 10.7276,1.5355 12.9342,6.1188 -0.2497,8.8895 11.463,1.8979 12.7929,4.5841 1.6305,9.5671 12.5827,-0.0828 13.6639,1.4577 4.0676,9.4874 11.9262,-3.0584 13.2989,-0.5105 5.3981,8.6316 12.0421,-5.7611 11.9835,-2.882 7.383,7.2232 10.4037,-7.4675 11.0388,-5.6793 8.4137,6.4398 7.678,-9.8487 10.1825,-9.1837 9.7399,3.7393 6.0633,-11.0532 8.3858,-12.2117 9.8787,1.1957 0.8433,-4.9438 4.8638,-18.1297 9.326,-0.0239 0.97,-6.1233 1.5441,-17.8827 9.7925,-1.1503 -1.2969,-15.5324 3.3209,-11.1349 9.6221,-4.1911 -3.8689,-13.6276 0.2355,-11.9232 8.6591,-5.6309 -7.5035,-13.645 -0.7169,-11.1972 7.2367,-7.4783 -7.3369,-9.3329 -7.3568,-11.5998 5.7133,-8.6422 -8.3959,-7.0782 -10.6564,-9.8127 3.2587,-9.655 -10.0836,-5.249 -11.0461,-7.4574 1.7993,-9.5391 -12.3227,-2.0703 -12.7088,-8.1429 -0.3218,-8.7064 -11.9683,-2.4401 -11.0724,-4.4068 -1.3052,-9.7467 -12.2472,0.5546 -13.299,-1.2434 -3.2992,-9.4705 -8.1233,1.2612 -16.0812,4.2925 -6.1262,-8.4997 -14.3952,6.482 -10.577,0.3759 -7.2172,-7.292z"/>
   <path id="_59000584" class="fil3" d="M62.9379 48.8708c-2.8877,0 -5.248,-2.3537 -5.248,-5.248 0,-2.8944 2.3603,-5.2481 5.248,-5.2481 2.8878,0 5.2481,2.3537 5.2481,5.2481 0,2.8943 -2.3603,5.248 -5.2481,5.248z"/>
   <path id="_58884072" class="fil1 str3" d="M51.9887 54.0968c4.5693,0 8.2749,3.7056 8.2749,8.2751 0,4.5695 -3.7056,8.2751 -8.2749,8.2751 -4.5693,0 -8.2749,-3.7056 -8.2749,-8.2751 0,-4.5695 3.7056,-8.2751 8.2749,-8.2751z"/>
   <path id="_58999560" class="fil1 str3" d="M62.8887 54.0968c4.5693,0 8.2749,3.7056 8.2749,8.2751 0,4.5695 -3.7056,8.2751 -8.2749,8.2751 -4.5693,0 -8.2749,-3.7056 -8.2749,-8.2751 0,-4.5695 3.7056,-8.2751 8.2749,-8.2751z"/>
   <path id="_58960776" class="fil1 str3" d="M73.5884 54.0968c4.5693,0 8.2749,3.7056 8.2749,8.2751 0,4.5695 -3.7056,8.2751 -8.2749,8.2751 -4.5693,0 -8.2749,-3.7056 -8.2749,-8.2751 0,-4.5695 3.7056,-8.2751 8.2749,-8.2751z"/>
   <line id="_59455240" class="fil1 str3" x1="56.9499" y1="81.4808" x2="68.8324" y2= "68.1928" />
   <line id="_59080848" class="fil1 str3" x1="50.8318" y1="76.2958" x2="57.9571" y2= "68.3268" />
   <line id="_58341816" class="fil1 str3" x1="62.976" y1="86.5178" x2="78.5724" y2= "69.0768" />
   <path id="_58392280" class="fil4" d="M98.3674 53.4348l-0.164 -0.7225c-0.077,-0.3395 0.007,-0.6333 0.2512,-0.885 0.2105,-0.2161 0.4947,-0.3642 0.8523,-0.4453 1.1006,-0.2498 2.2193,-0.3023 3.3552,-0.1562l-0.0543 0.6757c-0.4145,-0.0692 -0.9531,-0.0824 -1.6195,-0.0401 -0.5993,0.0372 -1.0917,0.0995 -1.4781,0.1872 -0.247,0.0561 -0.4169,0.1326 -0.511,0.2312 -0.1178,0.1229 -0.1507,0.3013 -0.098,0.5337l0.108 0.4756 -0.6418 0.1457zm1.8406 1.2599c-0.1071,0.0635 -0.2207,0.1096 -0.3399,0.1366 -0.2854,0.0648 -0.5586,0.0382 -0.8199,-0.0811 -0.2835,-0.1281 -0.4576,-0.3317 -0.5205,-0.6087l-0.2081 -0.9175 0.6417 -0.1456 0.1593 0.702c0.0312,0.1373 0.112,0.2367 0.2432,0.3018 0.1233,0.0632 0.2536,0.0793 0.392,0.0479 0.0614,-0.014 0.1137,-0.0347 0.1565,-0.0634l1.441 -0.8866 0.4096 0.5388c-0.3317,0.2285 -0.8504,0.5538 -1.5549,0.9758zm-2.8226 0.1985c-0.011,-0.1431 -0.0305,-0.2792 -0.0592,-0.4056 -0.0306,-0.1348 -0.0698,-0.2577 -0.1171,-0.371l0.6948 -0.1577c0.0357,0.0515 0.0774,0.1737 0.1243,0.3694 0.0382,0.1686 0.0614,0.3039 0.0688,0.4035l-0.7116 0.1614z"/>
   <path id="_58898864" class="fil4" d="M34.6815 62.4748c0,0.2783 -0.0836,0.5143 -0.2508,0.7069 -0.1736,0.1979 -0.399,0.2974 -0.6763,0.2974 -0.1608,0 -0.3238,-0.0508 -0.4868,-0.1524 -0.1365,-0.0825 -0.2307,-0.1672 -0.2826,-0.254 -0.0434,0.0889 -0.1132,0.1747 -0.2106,0.2572 -0.1175,0.0995 -0.2328,0.1492 -0.3439,0.1492 -0.2382,0 -0.4022,-0.0497 -0.4932,-0.1492 0.0137,0.145 0.0264,0.3884 0.037,0.7324 0.0106,0.3556 0.0085,0.5842 -0.0063,0.6879l-0.543 0c0.0085,-0.1016 0.0127,-0.2201 0.0127,-0.3567 0,-0.4984 -0.0444,-1.0858 -0.1333,-1.7642 -0.0953,-0.7313 -0.2106,-1.3071 -0.3471,-1.7272l0.49 -0.2201c0.1757,0.4794 0.3058,1.0276 0.3905,1.6435 0.0519,0.3736 0.2127,0.561 0.4837,0.561 0.1016,0 0.182,-0.0508 0.2423,-0.1514 0.0519,-0.0857 0.0773,-0.181 0.0773,-0.2889 0,-0.0349 -0.0043,-0.073 -0.0127,-0.1143l-0.2815 -1.4425 0.545 -0.1789 0.2921 1.4256c0.0963,0.4794 0.2688,0.7197 0.5175,0.7197 0.2381,0 0.3567,-0.1588 0.3567,-0.4773 0,-0.1651 -0.0572,-0.4075 -0.1704,-0.7261 -0.108,-0.3016 -0.2138,-0.5291 -0.3165,-0.6815l0.5049 -0.2456c0.1513,0.2107 0.2878,0.4911 0.4095,0.8404 0.1302,0.364 0.1958,0.6667 0.1958,0.9091z"/>
   <path id="_59001536" class="fil4" d="M26.1889 64.6728l-0.5461 0c0.0085,-0.0953 0.0127,-0.2085 0.0127,-0.3408 0,-0.5175 -0.0445,-1.1176 -0.1334,-1.8023 -0.0931,-0.7186 -0.2084,-1.3091 -0.3471,-1.7706l0.5863 -0.1111c0.0974,0.4011 0.1905,0.926 0.2815,1.5748 0.1101,0.7884 0.1651,1.4467 0.1651,1.9759 0,0.1735 -0.0063,0.3312 -0.019,0.4741z"/>
   <path id="_58947760" class="fil4" d="M30.5395 62.4318c0,0.2783 -0.0836,0.5143 -0.2508,0.7069 -0.1736,0.1979 -0.399,0.2974 -0.6763,0.2974 -0.1608,0 -0.3238,-0.0508 -0.4868,-0.1524 -0.1365,-0.0825 -0.2307,-0.1672 -0.2826,-0.254 -0.0434,0.0889 -0.1132,0.1747 -0.2106,0.2572 -0.1175,0.0995 -0.2328,0.1492 -0.3439,0.1492 -0.2382,0 -0.4022,-0.0497 -0.4932,-0.1492 0.0137,0.145 0.0264,0.3884 0.037,0.7324 0.0106,0.3556 0.0085,0.5842 -0.0063,0.6879l-0.543 0c0.0085,-0.1016 0.0127,-0.2201 0.0127,-0.3567 0,-0.4984 -0.0444,-1.0858 -0.1333,-1.7642 -0.0953,-0.7313 -0.2106,-1.3071 -0.3471,-1.7272l0.49 -0.2201c0.1757,0.4794 0.3058,1.0276 0.3905,1.6435 0.0519,0.3736 0.2127,0.561 0.4837,0.561 0.1016,0 0.182,-0.0508 0.2423,-0.1514 0.0519,-0.0857 0.0773,-0.181 0.0773,-0.2889 0,-0.0349 -0.0043,-0.073 -0.0127,-0.1143l-0.2815 -1.4425 0.545 -0.1789 0.2921 1.4256c0.0963,0.4794 0.2688,0.7197 0.5175,0.7197 0.2381,0 0.3567,-0.1588 0.3567,-0.4773 0,-0.1651 -0.0572,-0.4075 -0.1704,-0.7261 -0.108,-0.3016 -0.2138,-0.5291 -0.3165,-0.6815l0.5049 -0.2456c0.1513,0.2107 0.2878,0.4911 0.4095,0.8404 0.1302,0.364 0.1958,0.6667 0.1958,0.9091z"/>
   <path id="_58983232" class="fil4" d="M37.1122 62.5008c0,0.2699 -0.0688,0.5059 -0.2074,0.7069 -0.1577,0.2255 -0.3662,0.3376 -0.6266,0.3376 -0.219,0 -0.3841,-0.0603 -0.4931,-0.1799 0.0137,0.145 0.0264,0.3937 0.037,0.7472 0.0106,0.3683 0.0085,0.6022 -0.0064,0.7038l-0.5429 0c0.0085,-0.0953 0.0127,-0.2085 0.0127,-0.3408 0,-0.5175 -0.0444,-1.1176 -0.1333,-1.8023 -0.0932,-0.7186 -0.2085,-1.3091 -0.3471,-1.7706l0.527 -0.1111c0.1407,0.3842 0.2593,0.9176 0.3535,1.6002 0.0518,0.364 0.2074,0.5461 0.4656,0.5461 0.1239,0 0.2244,-0.0529 0.3006,-0.1577 0.0709,-0.0953 0.1058,-0.2074 0.1058,-0.3355 0,-0.1556 -0.0561,-0.3863 -0.1672,-0.6943 -0.1016,-0.2794 -0.2127,-0.527 -0.3323,-0.7418l0.4932 -0.217c0.1238,0.1715 0.2434,0.4191 0.3598,0.7408 0.1344,0.3726 0.2011,0.6953 0.2011,0.9684z"/>
   <path id="_58982160" class="fil4" d="M91.6264 64.3098l-0.7742 0 0 -2.919c-0.2831,0.2652 -0.6161,0.4609 -1,0.587l0 -0.7028c0.2014,-0.0658 0.4215,-0.1909 0.6585,-0.3753 0.2371,-0.1853 0.3998,-0.4007 0.4873,-0.6472l0.6284 0 0 4.0573zm1.1741 -0.9341l0.7497 -0.0828c0.0188,0.1524 0.0668,0.2653 0.144,0.3386 0.0771,0.0734 0.1787,0.1101 0.3057,0.1101 0.1599,0 0.2954,-0.0734 0.4073,-0.2201 0.1129,-0.1468 0.1844,-0.4516 0.2154,-0.9153 -0.1947,0.2267 -0.4383,0.3396 -0.73,0.3396 -0.3179,0 -0.5926,-0.1233 -0.8231,-0.3679 -0.2305,-0.2455 -0.3462,-0.5644 -0.3462,-0.9576 0,-0.4102 0.1223,-0.7404 0.366,-0.9915 0.2427,-0.2503 0.5531,-0.3763 0.9294,-0.3763 0.4102,0 0.746,0.159 1.0094,0.476 0.2625,0.317 0.3942,0.8382 0.3942,1.5635 0,0.7394 -0.1374,1.2718 -0.4111,1.5992 -0.2738,0.3264 -0.6303,0.4901 -1.0696,0.4901 -0.3161,0 -0.5711,-0.0837 -0.7658,-0.2521 -0.1947,-0.1684 -0.3198,-0.4196 -0.3753,-0.7535zm1.7535 -1.6924c0,-0.2502 -0.0574,-0.444 -0.1722,-0.5813 -0.1147,-0.1383 -0.2483,-0.207 -0.3988,-0.207 -0.143,0 -0.2625,0.0564 -0.3566,0.1693 -0.095,0.1129 -0.142,0.2982 -0.142,0.556 0,0.2606 0.0517,0.4525 0.1543,0.5738 0.1025,0.1223 0.2314,0.1835 0.3856,0.1835 0.1487,0 0.2747,-0.0584 0.3763,-0.1759 0.1026,-0.1176 0.1534,-0.2907 0.1534,-0.5184zm1.381 1.587l0.7714 -0.079c0.0216,0.174 0.0874,0.3123 0.1956,0.4139 0.1082,0.1025 0.2333,0.1533 0.3744,0.1533 0.1618,0 0.2992,-0.0658 0.4111,-0.1966 0.112,-0.1317 0.1684,-0.3302 0.1684,-0.5945 0,-0.2474 -0.0555,-0.4337 -0.1674,-0.5578 -0.111,-0.1242 -0.2559,-0.1863 -0.4337,-0.1863 -0.222,0 -0.4214,0.0988 -0.5983,0.2954l-0.6284 -0.0913 0.397 -2.1025 2.0479 0 0 0.7244 -1.4609 0 -0.1214 0.6867c0.1731,-0.0865 0.349,-0.1298 0.5297,-0.1298 0.3433,0 0.6349,0.1251 0.8729,0.3744 0.239,0.2502 0.3585,0.5748 0.3585,0.9736 0,0.3321 -0.096,0.6294 -0.2888,0.8899 -0.2634,0.3566 -0.6275,0.5344 -1.0941,0.5344 -0.3735,0 -0.6773,-0.0997 -0.9125,-0.3001 -0.2352,-0.2004 -0.3763,-0.4694 -0.4214,-0.8081zm3.1006 -0.0329l0.7488 -0.0903c0.0245,0.1909 0.0884,0.3368 0.1938,0.4374 0.1044,0.1016 0.2314,0.1524 0.38,0.1524 0.16,0 0.2945,-0.0611 0.4036,-0.1825 0.1091,-0.1213 0.1637,-0.2841 0.1637,-0.4901 0,-0.1947 -0.0517,-0.349 -0.1571,-0.4628 -0.1044,-0.1148 -0.2324,-0.1713 -0.3829,-0.1713 -0.0987,0 -0.2173,0.0189 -0.3556,0.0574l0.0856 -0.6302c0.2098,0.0047 0.3697,-0.0405 0.4798,-0.1365 0.1101,-0.0968 0.1656,-0.2248 0.1656,-0.3847 0,-0.1364 -0.0405,-0.2446 -0.1214,-0.3255 -0.0809,-0.0809 -0.1891,-0.1213 -0.3226,-0.1213 -0.1327,0 -0.2456,0.046 -0.3387,0.1382 -0.0941,0.0913 -0.1515,0.2258 -0.1712,0.4017l-0.714 -0.1204c0.0498,-0.2446 0.1242,-0.4402 0.2248,-0.5861 0.0997,-0.1458 0.2399,-0.2605 0.4186,-0.3443 0.1797,-0.0837 0.3801,-0.126 0.6021,-0.126 0.381,0 0.6858,0.1213 0.9153,0.364 0.1891,0.1985 0.2841,0.4224 0.2841,0.6727 0,0.3546 -0.1938,0.6378 -0.5814,0.8485 0.2315,0.0498 0.4158,0.1608 0.5551,0.3339 0.1383,0.1722 0.2079,0.381 0.2079,0.6256 0,0.3547 -0.1299,0.6566 -0.3885,0.9069 -0.2587,0.2493 -0.5814,0.3744 -0.9671,0.3744 -0.3659,0 -0.6689,-0.1054 -0.9097,-0.3152 -0.2408,-0.2107 -0.38,-0.4854 -0.4186,-0.8259z"/>
   <path id="_59086688" class="fil4" d="M99.1224 51.0738c-0.1057,0.089 -0.2307,0.1585 -0.3769,0.2077 -0.3066,0.1033 -0.5964,0.098 -0.8716,-0.0152 -0.2873,-0.1222 -0.4825,-0.3339 -0.5842,-0.6359 -0.0501,-0.1486 -0.0685,-0.3117 -0.0542,-0.4898 0.015,-0.1953 0.0681,-0.3473 0.1599,-0.4538 -0.2927,-0.0369 -0.4954,-0.2214 -0.6101,-0.5541 -0.1438,-0.4193 -0.118,-0.7563 0.0788,-1.0115 -0.2946,-0.0428 -0.4966,-0.2289 -0.6065,-0.5553l-0.0969 -0.2878 0.6072 -0.2045c0.0695,0.2063 0.1111,0.3841 0.3354,0.4772 0.1236,0.0513 0.2376,0.0593 0.3405,0.0247 0.014,-0.0048 0.0309,-0.013 0.0527,-0.0256l1.5157 -0.8845c0.1109,0.1478 0.2411,0.3255 0.3929,0.5323l-1.3555 0.7913c-0.2643,0.1555 -0.4241,0.2574 -0.4817,0.3069 -0.1913,0.1713 -0.2554,0.3518 -0.1912,0.5425 0.0413,0.1228 0.1271,0.1995 0.2572,0.23 0.1082,0.0274 0.2277,0.0184 0.3577,-0.0254 0.0525,-0.0178 0.1032,-0.0412 0.1519,-0.0707l1.3719 -0.8243 0.4175 0.5278 -1.3719 0.8243c-0.2319,0.1393 -0.3931,0.2523 -0.4815,0.338 -0.1845,0.1755 -0.2476,0.3519 -0.1893,0.525 0.0421,0.1252 0.1337,0.2038 0.2737,0.2362 0.1215,0.0281 0.2487,0.0192 0.381,-0.0254 0.0667,-0.0225 0.1221,-0.0516 0.1665,-0.0861l1.2424 -0.98 0.428 0.5008 -1.2594 1.0652zm2.1559 -2.2713c-0.0055,-0.0165 -0.2504,0.0453 -0.7334,0.1818 -0.0181,-0.1815 -0.0936,-0.4831 -0.2277,-0.9042 -0.1337,-0.4202 -0.2497,-0.7186 -0.348,-0.894l0.6942 -0.2637c0.1001,0.1695 0.2248,0.4741 0.3726,0.9129 0.1607,0.4773 0.2419,0.7992 0.2423,0.9672zm0.0675 -0.682c-0.0278,-0.1404 -0.0622,-0.2736 -0.1036,-0.3964 -0.0441,-0.131 -0.0956,-0.2492 -0.1542,-0.3571l0.6752 -0.2274c0.0408,0.0475 0.0946,0.1648 0.1612,0.3548 0.0551,0.1638 0.0918,0.296 0.1094,0.3944l-0.688 0.2317z"/>
   <path id="_59034912" class="fil4" d="M100.161 44.8338c-0.0231,0.0064 -0.055,0.02 -0.0934,0.0398 -0.0274,0.0142 -0.0598,0.0322 -0.097,0.0542 -0.1086,-0.3371 -0.2474,-0.6685 -0.4154,-0.9944 -0.2059,-0.3996 -0.4127,-0.6985 -0.6206,-0.8969l0.1605 -0.144c0.2293,0.2694 0.4584,0.6278 0.688,1.0734 0.1528,0.2963 0.2784,0.5859 0.3779,0.8679zm-3.8258 2.9123l-0.2298 -0.3914c-0.0818,-0.1395 -0.0679,-0.3178 0.0195,-0.5227 -0.2198,-0.0519 -0.365,-0.1763 -0.4715,-0.3542l-1.2696 -2.1192 0.5943 -0.2854 1.1506 1.8902c0.1304,0.214 0.29,0.2742 0.5237,0.1537 0.0209,-0.0108 0.0471,-0.0271 0.0773,-0.0468l0.7792 -0.5419c0.2119,-0.1467 0.2844,-0.405 0.2186,-0.7753 -0.0165,-0.0831 -0.0786,-0.2386 -0.1868,-0.4648 -0.1009,-0.2065 -0.1721,-0.3364 -0.2141,-0.3911 -0.032,-0.0406 -0.0563,-0.0767 -0.0727,-0.1085 -0.1085,-0.2107 -0.0382,-0.3789 0.2076,-0.5056 0.056,-0.0288 0.122,-0.0545 0.1962,-0.0774l0.3032 -0.0911c0.3394,-0.1014 0.6599,0.003 0.9641,0.3129 0.1269,0.1305 0.2824,0.3753 0.4679,0.7353 0.1867,0.3623 0.3067,0.6519 0.3613,0.8682l-0.5685 0.293c-0.0974,-0.3374 -0.1951,-0.5995 -0.2912,-0.7861 -0.3327,-0.6453 -0.6438,-0.8933 -0.9336,-0.744 0.2324,0.451 0.3694,0.7625 0.4107,0.9371 0.1323,0.5638 -0.0007,0.9795 -0.3989,1.2473l-0.9103 0.6108c-0.4389,0.2945 -0.3355,0.4439 -0.1382,0.8266l-0.589 0.3304z"/>
   <path id="_58356872" class="fil4" d="M94.3464 42.5298c-0.2156,0.1592 -0.4431,0.2397 -0.6829,0.2433 -0.2685,0.0065 -0.4794,-0.0941 -0.6327,-0.3018l-0.4899 -0.6635c-0.322,-0.436 -0.2499,-0.8269 0.2178,-1.1723 0.157,-0.1159 0.3877,-0.2295 0.6924,-0.3409 0.2899,-0.1081 0.5403,-0.1764 0.7529,-0.2045l0.142 0.6058c-0.5057,0.1156 -0.8563,0.2456 -1.052,0.3901 -0.2016,0.1489 -0.2553,0.2882 -0.1592,0.4184l0.333 0.4508c0.0587,0.0795 0.1418,0.1194 0.2488,0.1188 0.099,-0.0011 0.1884,-0.0317 0.2699,-0.0919 0.1321,-0.0975 0.2511,-0.3313 0.3597,-0.7016 0.1336,-0.4593 0.1601,-0.9286 0.0795,-1.4078l0.6245 -0.0252c0.1144,0.3774 0.1008,0.8557 -0.0376,1.4352 -0.1449,0.6104 -0.3673,1.0263 -0.6662,1.2471z"/>
   <path id="_59040672" class="fil4" d="M94.6174 44.7798l-0.3599 -0.6475c-0.1692,-0.3044 -0.1709,-0.6099 -0.007,-0.92 0.1414,-0.2664 0.3727,-0.4882 0.6932,-0.6664 0.9865,-0.5483 2.0456,-0.9124 3.1769,-1.0905l0.1373 0.6638c-0.4173,0.0498 -0.938,0.188 -1.5659,0.4155 -0.5648,0.2038 -1.0199,0.4016 -1.3663,0.5941 -0.2213,0.123 -0.363,0.2441 -0.4257,0.3652 -0.0785,0.151 -0.0601,0.3315 0.0556,0.5398l0.237 0.4263 -0.5752 0.3197z"/>
   <path id="_58978040" class="fil4" d="M75.9514 28.5038c-0.294,0.7188 -0.8219,1.2433 -1.5846,1.5717l-0.2898 -0.6188c0.3512,-0.1152 0.6365,-0.32 0.8539,-0.6166l-0.623 -0.2548c-0.1919,-0.0785 -0.319,-0.2505 -0.3828,-0.5153 -0.0825,-0.3526 -0.0143,-0.7969 0.2059,-1.3353 0.1304,-0.3188 0.305,-0.5956 0.5232,-0.8291 0.2962,-0.3164 0.5763,-0.4207 0.8425,-0.3118 0.3189,0.1304 0.5256,0.5285 0.6209,1.1957 0.0916,0.6471 0.0367,1.2183 -0.1662,1.7143zm-0.6446 -0.221c0.0288,-0.0509 0.0551,-0.1055 0.0785,-0.1627 0.1337,-0.3268 0.1756,-0.7098 0.1268,-1.1513 -0.0441,-0.401 -0.114,-0.6216 -0.21,-0.6608 -0.1635,-0.0669 -0.3582,0.1776 -0.5854,0.7331 -0.0822,0.2011 -0.1255,0.3982 -0.1285,0.5916 -0.0055,0.2353 0.0581,0.38 0.1894,0.4337l0.5292 0.2164z"/>
   <path id="_58965720" class="fil4" d="M73.3114 27.7578c-0.2235,0.7579 -0.6861,1.345 -1.3862,1.759l-0.3725 -0.5398c0.5981,-0.4351 0.9839,-0.9444 1.1563,-1.5294 0.0793,-0.2689 0.1019,-0.6599 0.0686,-1.1757l-0.0706 -1.057 0.6499 -0.1173 0.0664 1.2064c0.0333,0.6032 -0.004,1.0878 -0.1119,1.4538z"/>
   <path id="_59002304" class="fil4" d="M71.5774 24.2928c-0.1326,-0.0546 -0.2629,-0.0983 -0.3884,-0.1306 -0.134,-0.0345 -0.2611,-0.0558 -0.3838,-0.0645l0.178 -0.6911c0.062,-0.0082 0.1898,0.0106 0.3853,0.0584 0.1674,0.0431 0.2983,0.0845 0.3903,0.1234l-0.1814 0.7044zm-0.0435 3.0105c-0.1971,0.7653 -0.6392,1.368 -1.3245,1.806l-0.3909 -0.5266c0.5826,-0.4555 0.9505,-0.9779 1.1026,-1.5685 0.0699,-0.2715 0.079,-0.6631 0.0266,-1.1777l-0.106 -1.0536 0.6454 -0.1398 0.1082 1.2034c0.0542,0.6017 0.0337,1.0873 -0.0614,1.4568z"/>
   <path id="_58866248" class="fil4" d="M51.213 27.1008c0.1818,0.1222 0.3136,0.2952 0.3943,0.5194 0.0858,0.2382 0.0915,0.4579 0.0181,0.6589 -0.076,0.215 -0.231,0.364 -0.4645,0.4481l-1.2733 0.4585 -0.223 -0.6192 1.1095 -0.3995c0.1499,-0.054 0.1916,-0.1714 0.1259,-0.3538 -0.0272,-0.0755 -0.0621,-0.1286 -0.1046,-0.1592l-1.6443 -1.1441 0.3247 -0.5709 1.7372 1.1618z"/>
   <path id="_58959816" class="fil4" d="M25.4468 52.0618c-0.0531,0.133 -0.0966,0.2634 -0.1286,0.389 -0.0342,0.134 -0.0552,0.2611 -0.0648,0.3836l-0.6903 -0.1762c-0.0084,-0.062 0.0103,-0.1898 0.0576,-0.3855 0.0428,-0.1675 0.0839,-0.2984 0.1226,-0.3905l0.7035 0.1796zm2.5261 -0.9901c0.4298,0.1784 0.6909,0.5434 0.7816,1.0915 0.0739,0.4445 0.0339,0.9656 -0.1188,1.5638 -0.2296,0.8997 -0.707,1.257 -1.4308,1.0723 -0.2991,-0.0764 -0.6485,-0.2599 -1.0469,-0.5515 -0.3706,-0.2705 -0.6594,-0.5417 -0.8671,-0.8114l0.4408 -0.4137c0.2082,0.2176 0.4637,0.4344 0.7675,0.6521 0.3495,0.2486 0.6405,0.4018 0.8749,0.4616 0.3147,0.0803 0.5361,-0.1282 0.6631,-0.6258 0.1289,-0.5049 0.1712,-0.8904 0.1267,-1.1554 -0.0678,-0.3983 -0.319,-0.6522 -0.7532,-0.7631 -0.2752,-0.0702 -0.6622,-0.1066 -1.1588,-0.1084 -0.448,-0.0023 -0.8245,0.0201 -1.1302,0.0695l-0.1074 -0.6175c0.3555,-0.0952 0.7937,-0.1389 1.3132,-0.1273 0.4952,0.0067 0.9331,0.0585 1.3112,0.155 0.1315,0.0336 0.2422,0.0695 0.3342,0.1083z"/>
   <path id="_58345768" class="fil4" d="M89.2094 37.9518l-0.215 -0.204c-0.0913,-0.0867 -0.1417,-0.2112 -0.1529,-0.375 -0.4758,0.3469 -1.0175,0.5391 -1.6252,0.5768l-0.0859 -0.6502c0.7297,-0.1142 1.3059,-0.393 1.7258,-0.8353 0.1921,-0.2024 0.3902,-0.5421 0.5936,-1.0164l0.421 -0.9725 0.632 0.1914 -0.9098 2.0184c-0.1511,0.3385 -0.1661,0.5659 -0.0434,0.6824l0.1128 0.1071 -0.453 0.4773z"/>
   <path id="_58930048" class="fil4" d="M92.6964 36.2698c-0.0818,-0.1176 -0.1667,-0.2257 -0.2538,-0.3216 -0.093,-0.1024 -0.1876,-0.1899 -0.2845,-0.2653l0.5273 -0.4791c0.0563,0.0271 0.1528,0.113 0.29,0.2603 0.1163,0.1279 0.2028,0.2344 0.2583,0.3175l-0.5373 0.4882zm-0.9066 2.8157c-0.2357,0.2141 -0.5088,0.2958 -0.8204,0.2483 -0.2904,-0.0443 -0.5294,-0.2009 -0.7636,-0.4255l-1.2325 -1.1815 0.4275 -0.683 1.2895 1.4192c0.2384,0.2623 0.4174,0.3381 0.5389,0.2277 -0.1522,-0.0886 -0.3067,-0.2202 -0.4645,-0.3938 -0.6684,-0.7356 -0.7372,-1.3438 -0.2072,-1.8254 0.212,-0.1926 0.4736,-0.3252 0.783,-0.3977 0.3615,-0.085 0.6341,-0.0274 0.8152,0.1719 0.2665,0.2933 0.3436,0.782 0.2322,1.4656 -0.1063,0.6504 -0.3057,1.1085 -0.5981,1.3742zm-0.1784 -1.0391c0.0882,-0.1619 0.1508,-0.3739 0.1888,-0.6369 0.0434,-0.3065 0.0158,-0.515 -0.083,-0.6237 -0.0747,-0.0822 -0.1928,-0.0966 -0.3562,-0.0433 -0.1288,0.0419 -0.2357,0.1023 -0.3235,0.1821 -0.1352,0.1228 -0.1903,0.2496 -0.1641,0.3793 0.0189,0.0998 0.0943,0.2213 0.2263,0.3666 0.181,0.1992 0.3516,0.3245 0.5117,0.3759z"/>
   <path id="_58911240" class="fil4" d="M80.9004 31.4728l-0.6034 -0.306c0.0039,0.1889 -0.009,0.3125 -0.0397,0.3731 -0.1625,0.3204 -0.5001,0.4566 -1.0133,0.4066 -0.3814,-0.0368 -0.7601,-0.1501 -1.1368,-0.3411 -1.0131,-0.5137 -1.3259,-1.1527 -0.9389,-1.9158 0.1385,-0.2731 0.5244,-0.6464 1.1566,-1.1205 0.5373,-0.4044 0.9918,-0.6973 1.364,-0.8823l0.3297 0.5645c-0.3684,0.205 -0.7652,0.4606 -1.1915,0.7663 -0.5251,0.3803 -0.8382,0.6701 -0.9398,0.8705 -0.1458,0.2873 -0.1488,0.5364 -0.0086,0.7459 0.1039,0.1552 0.3168,0.3143 0.6372,0.4768 0.185,0.0938 0.3834,0.1584 0.5958,0.1928 0.2748,0.0452 0.4446,0.0025 0.5099,-0.1262 0.0436,-0.086 0.0342,-0.1794 -0.0288,-0.2791 -0.0531,-0.0865 -0.1251,-0.152 -0.2153,-0.1978l0.2959 -0.5837 1.511 0.7963 -0.284 0.5597z"/>
   <path id="_59074944" class="fil4" d="M86.4244 30.6368c-0.1056,-0.0967 -0.2121,-0.1836 -0.3182,-0.2581 -0.1132,-0.0794 -0.2247,-0.1441 -0.3357,-0.1965l0.4093 -0.583c0.061,0.0141 0.1739,0.0767 0.34,0.1904 0.1415,0.0994 0.2494,0.1841 0.3217,0.253l-0.4171 0.5942zm-1.2642 3.5237c-0.3134,-0.22 -0.5427,-0.4185 -0.5224,-0.848 -0.3229,0.0946 -0.5881,0.0684 -0.7952,-0.0771l-0.5741 -0.403 0.4068 -0.4807 0.3655 0.2188c0.1197,0.0716 0.2415,0.099 0.3819,0.0599 0.1334,-0.0372 0.2411,-0.1114 0.3234,-0.2285 0.0355,-0.0505 0.0603,-0.101 0.0748,-0.1496l0.4712 -1.623 0.664 0.1223c-0.085,0.3703 -0.3108,1.164 -0.6776,2.3832 -0.0836,0.2779 0.0919,0.3307 0.2859,0.4669l-0.4042 0.5588z"/>
   <path id="_58345216" class="fil4" d="M87.9924 35.8148c-0.1569,0.1625 -0.3753,0.2131 -0.6523,0.1494 -0.241,-0.0556 -0.4448,-0.1707 -0.6223,-0.3349l-1.7266 -1.5949 0.3276 -0.6124 0.3621 0.2913c0.073,-0.168 0.2068,-0.3546 0.4049,-0.5597 0.1862,-0.1928 0.4301,-0.3281 0.7291,-0.4067 0.3372,-0.088 0.631,-0.0617 0.8823,0.0762l0.0042 -0.0612 0.5847 -0.0687c0.1542,0.4304 0.2135,0.9681 0.1768,1.6141 -0.0398,0.722 -0.1969,1.2242 -0.4705,1.5075zm-0.4064 -0.6189c0.1655,-0.1715 0.2521,-0.5633 0.2571,-1.1746 -0.0298,0.045 -0.0691,0.0928 -0.1197,0.1453 -0.1243,0.1287 -0.276,0.2484 -0.4547,0.3606 -0.2143,0.1348 -0.3911,0.2043 -0.5308,0.2067l0.3597 0.3474c0.207,0.1998 0.3692,0.238 0.4884,0.1146zm-0.6724 -1.2431c0.1247,-0.0633 0.2754,-0.1856 0.4521,-0.3685 0.1338,-0.1386 0.1837,-0.2242 0.1509,-0.2559 -0.0622,-0.06 -0.2104,-0.047 -0.4446,0.0392 -0.2005,0.0743 -0.3467,0.1476 -0.4389,0.2199 -0.0974,0.0759 -0.1986,0.1807 -0.301,0.3117 -0.1163,0.1471 -0.1583,0.2351 -0.1291,0.2634 0.0694,0.067 0.3066,-0.0028 0.7106,-0.2098z"/>
   <path id="_58957264" class="fil4" d="M85.3954 28.6048c-0.0162,0.0175 -0.0362,0.0459 -0.0585,0.0829 -0.0159,0.0265 -0.0339,0.0588 -0.054,0.0971 -0.2696,-0.2298 -0.5618,-0.4387 -0.8761,-0.6276 -0.3852,-0.2317 -0.7183,-0.3773 -0.9994,-0.4368l0.0609 -0.2069c0.3366,0.1087 0.7199,0.2932 1.1495,0.5515 0.2857,0.1718 0.5448,0.3521 0.7776,0.5398zm-1.7367 4.5098l-0.3883 -0.2335c-0.1386,-0.0834 -0.2249,-0.2347 -0.2582,-0.455 -0.2143,0.0714 -0.4085,0.0514 -0.5873,-0.0535l-1.601 -0.9386 0.1955 -0.6078 1.5395 0.859c0.2187,0.1221 0.3908,0.0809 0.5263,-0.1445 0.0121,-0.0201 0.0259,-0.0478 0.0411,-0.0804l0.3781 -0.8706c0.1032,-0.2362 0.029,-0.494 -0.2216,-0.7745 -0.0578,-0.062 -0.1922,-0.1617 -0.4033,-0.2972 -0.1943,-0.1226 -0.3231,-0.1958 -0.3876,-0.2202 -0.0486,-0.0177 -0.0882,-0.0356 -0.1189,-0.0541 -0.2031,-0.1221 -0.2316,-0.3022 -0.0891,-0.5392 0.0324,-0.054 0.0751,-0.1105 0.1261,-0.169l0.2101 -0.2368c0.2355,-0.2647 0.563,-0.3443 0.9847,-0.2407 0.1765,0.0443 0.4375,0.171 0.7846,0.3797 0.3492,0.21 0.6035,0.3933 0.7636,0.5486l-0.3296 0.5481c-0.2602,-0.2358 -0.4811,-0.4075 -0.661,-0.5157 -0.6221,-0.3741 -1.0172,-0.4215 -1.1852,-0.1421 0.4348,0.2615 0.7151,0.4544 0.8419,0.5812 0.409,0.4101 0.5143,0.8337 0.3164,1.2708l-0.4534 0.9981c-0.1515,0.3311 -0.1382,0.5509 0.0396,0.6578l0.2762 0.1661 -0.3392 0.564z"/>
   <path id="_57757216" class="fil4" d="M65.9384 26.7218l-0.6766 0c0.0889,0.1667 0.1333,0.2828 0.1333,0.3507 0,0.3593 -0.2395,0.6334 -0.7198,0.821 -0.3568,0.1396 -0.7458,0.2099 -1.1681,0.2099 -1.1359,0 -1.7039,-0.4284 -1.7039,-1.2841 0,-0.3062 0.1754,-0.8136 0.5248,-1.5224 0.2963,-0.6037 0.5692,-1.0705 0.8174,-1.4038l0.5494 0.3543c-0.2358,0.3495 -0.4741,0.7569 -0.7161,1.2224 -0.2963,0.5766 -0.4445,0.9767 -0.4445,1.2014 0,0.3222 0.1099,0.5457 0.3297,0.6692 0.1629,0.0914 0.4247,0.137 0.784,0.137 0.2074,0 0.4136,-0.0321 0.6186,-0.0975 0.2655,-0.084 0.3976,-0.1988 0.3976,-0.3432 0,-0.0964 -0.0506,-0.1754 -0.1519,-0.2359 -0.0864,-0.0531 -0.1803,-0.079 -0.2815,-0.079l0 -0.6544 1.7076 0 0 0.6544z"/>
   <path id="_59004520" class="fil4" d="M68.4724 22.6038c-0.1358,-0.0452 -0.2685,-0.0811 -0.3957,-0.1058 -0.1358,-0.0264 -0.264,-0.04 -0.3867,-0.0424l0.1358 -0.6994c0.0614,-0.012 0.19,-0.0008 0.3881,0.0352 0.1696,0.0329 0.3028,0.0663 0.397,0.0997l-0.1385 0.7127zm0.5596 0.3954c-0.017,-0.0033 -0.0843,0.2403 -0.2042,0.7277 -0.1667,-0.074 -0.4662,-0.1573 -0.8987,-0.2489 -0.4313,-0.0913 -0.7481,-0.1377 -0.9491,-0.139l0.1136 -0.7339c0.1968,-0.0032 0.5233,0.0388 0.9778,0.1271 0.4945,0.096 0.8144,0.1845 0.9606,0.267zm0.9097 2.9967c0.0252,0.1358 0.0239,0.2788 -0.0055,0.4303 -0.0617,0.3176 -0.2095,0.5669 -0.4439,0.7502 -0.2481,0.1896 -0.5286,0.2546 -0.8414,0.1939 -0.1539,-0.0299 -0.3049,-0.0945 -0.4526,-0.1949 -0.1624,-0.1095 -0.2684,-0.2307 -0.3157,-0.3632 -0.1766,0.2362 -0.4372,0.3214 -0.7831,0.2567 -0.4356,-0.082 -0.7158,-0.271 -0.8405,-0.5682 -0.1827,0.2349 -0.4443,0.3187 -0.7825,0.253l-0.2981 -0.0579 0.1221 -0.6286 0.2657 0.0373c0.1052,0.0147 0.2088,-0.0108 0.315,-0.0936 0.1056,-0.0822 0.169,-0.1772 0.1897,-0.2838 0.0028,-0.0145 0.004,-0.0333 0.0038,-0.0585l-0.0202 -1.7547c0.1832,-0.0235 0.402,-0.0489 0.6569,-0.0787l0.0183 1.5695c0.0046,0.3066 0.0143,0.4959 0.0288,0.5704 0.0545,0.2508 0.1797,0.3959 0.3773,0.4343 0.1273,0.0247 0.2363,-0.012 0.327,-0.1101 0.0773,-0.0806 0.1285,-0.1889 0.1546,-0.3235 0.0106,-0.0545 0.0152,-0.1102 0.0136,-0.167l-0.0388 -1.6 0.6651 -0.1023 0.0388 1.6c0.0067,0.2704 0.0252,0.4664 0.0561,0.5856 0.0614,0.2472 0.1836,0.3892 0.3629,0.424 0.1297,0.0252 0.2433,-0.0156 0.3406,-0.1213 0.0844,-0.0918 0.1395,-0.2068 0.1661,-0.3438 0.0134,-0.069 0.0155,-0.1316 0.0074,-0.1872l-0.2383 -1.5645 0.6469 -0.1246 0.3039 1.6212z"/>
   <path id="_58967784" class="fil4" d="M41.4712 32.8448c0.4515,0.6485 0.62,1.3767 0.505,2.1819l-0.6541 -0.0472c0.0347,-0.7388 -0.1213,-1.3583 -0.4697,-1.8589 -0.1602,-0.23 -0.4511,-0.4923 -0.8743,-0.789l-0.8688 -0.6062 0.315 -0.5804 0.9828 0.7029c0.4914,0.3515 0.8461,0.6837 1.0641,0.9969z"/>
   <path id="_58416920" class="fil4" d="M54.1656 26.5138c0.083,0.3596 0.0707,0.6793 -0.0375,0.9628 -0.1265,0.3308 -0.3641,0.5364 -0.7118,0.6166l-1.1598 0.2677 -0.148 -0.6413 0.1769 -0.0408c-0.2743,-1.1887 -0.6428,-2.22 -1.1044,-3.0943l0.6111 -0.345c0.4096,0.7646 0.7415,1.698 0.9958,2.8 0.0472,0.2046 0.0771,0.3725 0.0894,0.5027l0.2081 -0.048c0.4103,-0.0947 0.5658,-0.36 0.4656,-0.7942 -0.2316,-1.0035 -0.6198,-1.9935 -1.165,-2.9726l0.5412 -0.3619c0.5557,0.9311 0.9689,1.9801 1.2384,3.1483z"/>
   <path id="_58359400" class="fil4" d="M57.7185 27.1768l-0.6387 0.1246c-0.0653,0.4958 -0.2767,0.9747 -0.6341,1.438l-0.5516 -0.4032c0.2526,-0.2699 0.4043,-0.5866 0.4522,-0.9512l-0.6687 0.0761c-0.2061,0.0235 -0.4002,-0.0663 -0.5834,-0.2678 -0.242,-0.2694 -0.3958,-0.6919 -0.4615,-1.2698 -0.0391,-0.3422 -0.019,-0.6688 0.0599,-0.9785 0.1077,-0.4199 0.3031,-0.646 0.5889,-0.6785 0.3951,-0.045 0.7952,0.2488 1.2004,0.8823 0.3508,0.5504 0.5515,1.047 0.602,1.4898l0.4674 -0.0532 0.1672 0.5914zm-1.3106 -0.4612c0.0008,-0.0585 -0.0024,-0.119 -0.0093,-0.1804 -0.04,-0.3509 -0.1875,-0.7068 -0.4425,-1.0706 -0.2314,-0.3302 -0.3988,-0.4901 -0.5018,-0.4783 -0.1755,0.0199 -0.2287,0.328 -0.1608,0.9242 0.0246,0.2159 0.0815,0.4095 0.1718,0.5806 0.1083,0.2089 0.2336,0.3052 0.3746,0.2892l0.568 -0.0647z"/>
   <path id="_58968448" class="fil4" d="M58.4932 23.4538c-0.143,-0.009 -0.2804,-0.0096 -0.4097,-0.0009 -0.138,0.0093 -0.2654,0.0289 -0.3847,0.058l-0.0478 -0.7108c0.0563,-0.0273 0.1835,-0.0495 0.3841,-0.0655 0.1725,-0.0116 0.3097,-0.0133 0.4093,-0.0052l0.0488 0.7244zm1.643 2.4597c0.0214,0.3178 -0.0844,0.5824 -0.3151,0.7971 -0.2151,0.2 -0.485,0.3012 -0.8079,0.334l-1.5791 0.1607 -0.2947 -0.5734 1.826 -0.2436c0.3513,-0.0469 0.5242,-0.117 0.5132,-0.2808 -0.164,0.0642 -0.3631,0.1036 -0.5972,0.1193 -0.9916,0.0668 -1.5109,-0.2572 -1.559,-0.9717 -0.0193,-0.2857 0.0394,-0.5731 0.1748,-0.8606 0.158,-0.3361 0.3725,-0.5139 0.6411,-0.532 0.3954,-0.0266 0.8263,0.2166 1.2927,0.7285 0.4437,0.4875 0.6787,0.9283 0.7052,1.3225zm-0.925 -0.5057c-0.0721,-0.1697 -0.1993,-0.3506 -0.3818,-0.5436 -0.2131,-0.2245 -0.3937,-0.3325 -0.5403,-0.3226 -0.1108,0.0075 -0.1955,0.0911 -0.2552,0.2523 -0.0472,0.127 -0.0663,0.2482 -0.0583,0.3666 0.0123,0.1823 0.0774,0.3042 0.1953,0.3643 0.0899,0.0471 0.232,0.0635 0.4278,0.0504 0.2686,-0.0181 0.4727,-0.074 0.6125,-0.1674z"/>
   <path id="_58739984" class="fil4" d="M45.305 31.2398l-0.1985 0.1081c-0.2547,0.1386 -0.5181,0.1276 -0.7889,-0.0262 -0.0616,0.3308 -0.2381,0.5083 -0.4283,0.6744l-0.3227 0.282 -0.5253 -0.3756 0.3446 -0.3839c0.0932,-0.1038 0.1975,-0.1706 0.2261,-0.3135 0.0272,-0.1358 0.0092,-0.2665 -0.0575,-0.3918 -0.0296,-0.0555 -0.0622,-0.1011 -0.0979,-0.1367l-1.2354 -1.1536 0.4092 -0.5369c0.2918,0.2433 0.8973,0.8049 1.8196,1.6833 0.1275,0.121 0.2426,0.1533 0.3472,0.0976l0.2038 -0.1085 0.304 0.5813zm-0.0166 1.4661c-0.1352,0.0482 -0.2614,0.1028 -0.3759,0.1638 -0.122,0.065 -0.2302,0.1351 -0.3271,0.2105l-0.3348 -0.6288c0.0401,-0.048 0.1471,-0.1204 0.3236,-0.2171 0.1526,-0.0812 0.277,-0.1391 0.3712,-0.1725l0.343 0.6441z"/>
   <path id="_58941944" class="fil4" d="M43.7455 32.1288l-0.6026 0.502c-0.2675,0.2227 -0.5925,0.2247 -0.9157,0.0889 -0.2779,-0.117 -0.5195,-0.3278 -0.7254,-0.6312 -0.634,-0.9337 -1.0909,-1.9562 -1.369,-3.0672l0.6489 -0.1958c0.0868,0.4111 0.2708,0.9175 0.5533,1.5226 0.2532,0.5444 0.4908,0.9801 0.7134,1.308 0.1422,0.2095 0.2754,0.3399 0.4016,0.3915 0.1574,0.0648 0.3355,0.0304 0.5327,-0.1034l0.4035 -0.274 0.3593 0.4586z"/>
   <path id="_58962704" class="fil4" d="M47.5357 28.2208c0.1929,0.1181 0.3356,0.2686 0.4284,0.4514 0.1581,0.3171 0.1467,0.6358 -0.0348,0.9549 -0.1558,0.2743 -0.4019,0.496 -0.7366,0.6658 -0.4735,0.2402 -0.8269,0.2339 -1.0598,-0.0176 -0.0692,0.1693 -0.188,0.3529 -0.358,0.5499 -0.1909,0.2213 -0.3816,0.3805 -0.5731,0.4776l-0.2004 0.1017 -0.2977 -0.587 0.2004 -0.1016c0.3612,-0.1832 0.6126,-0.542 0.7552,-1.0767 0.1271,-0.4757 0.1398,-0.9391 0.0405,-1.3913l0.5641 -0.048c0.0788,0.1553 0.1189,0.4118 0.1204,0.7696 0.001,0.3568 0.0188,0.5692 0.0529,0.6364 0.0894,0.1762 0.2507,0.2051 0.4831,0.0872 0.1531,-0.0776 0.2695,-0.1838 0.3488,-0.3195 0.094,-0.1557 0.1053,-0.3054 0.0322,-0.4496 -0.0358,-0.0706 -0.0897,-0.1277 -0.1606,-0.1692l-1.4708 -0.9098 0.3591 -0.5476 1.5067 0.9234z"/>
   <path id="_58338824" class="fil4" d="M38.3504 36.3078l-0.4197 0.413c-0.3495,0.3438 -0.8242,0.2099 -1.4243,-0.4 -0.0849,-0.0863 -0.1964,-0.2295 -0.3354,-0.4288 -0.1398,-0.2002 -0.2521,-0.3425 -0.3361,-0.4279 -0.1065,-0.1083 -0.2279,-0.0962 -0.3644,0.0381 -0.1716,0.1688 -0.2565,0.4065 -0.2537,0.712 0.0029,0.2812 0.0676,0.4861 0.1949,0.6155 0.1109,0.1127 0.3099,0.2251 0.5962,0.3366 0.2498,0.0989 0.4772,0.1663 0.6838,0.2002l-0.0606 0.5828c-0.2696,-0.0153 -0.5686,-0.0884 -0.8993,-0.2169 -0.3621,-0.1409 -0.6349,-0.3054 -0.8193,-0.4929 -0.246,-0.25 -0.3371,-0.6418 -0.2743,-1.1766 0.0601,-0.5164 0.2221,-0.9045 0.4871,-1.1652 0.1355,-0.1333 0.2864,-0.2176 0.4517,-0.2521 0.1898,-0.0412 0.3492,0.0028 0.4757,0.1313 0.1238,0.1259 0.2968,0.3264 0.5189,0.6032 0.2239,0.2768 0.3969,0.4773 0.5207,0.6032 0.213,0.2165 0.3882,0.2572 0.5255,0.1221l0.2711 -0.2667 0.4615 0.4691zm1.3697 -2.8701c0.032,0.0255 0.0641,0.0546 0.0971,0.0881 0.1723,0.1751 0.2763,0.3741 0.3121,0.5954 0.0425,0.2491 -0.0212,0.4572 -0.1893,0.6227l-1.7409 1.7128 -0.4615 -0.4691 1.5701 -1.5449c0.1787,-0.1758 0.1758,-0.3582 -0.0087,-0.5457 -0.0164,-0.0168 -0.0389,-0.0379 -0.0667,-0.0608l-0.7487 -0.5832c-0.204,-0.158 -0.472,-0.1505 -0.8061,0.0222 -0.0745,0.0405 -0.2047,0.1459 -0.3886,0.3165 -0.1671,0.1575 -0.2701,0.2641 -0.3099,0.3205 -0.0291,0.0425 -0.0564,0.0764 -0.0819,0.1015 -0.169,0.1663 -0.3505,0.149 -0.5445,-0.0481 -0.0441,-0.0449 -0.0882,-0.1002 -0.1322,-0.1643l-0.1769 -0.2625c-0.1975,-0.2942 -0.193,-0.6311 0.0126,-1.0137 0.0869,-0.1598 0.2746,-0.381 0.5633,-0.665 0.2904,-0.2858 0.5313,-0.4863 0.7217,-0.6027l0.4486 0.456c-0.2933,0.1931 -0.5146,0.3642 -0.6643,0.5114 -0.5175,0.5092 -0.6619,0.88 -0.4333,1.1123 0.3618,-0.3559 0.6185,-0.5791 0.7729,-0.6703 0.4992,-0.2938 0.9357,-0.2902 1.3095,0.0106l0.9456 0.7603z"/>
   <path id="_59070288" class="fil4" d="M33.8868 38.2748c0.1324,0.0391 0.2593,0.1051 0.381,0.2 0.2551,0.199 0.4102,0.4438 0.4674,0.7358 0.0565,0.3071 -0.0128,0.5866 -0.2087,0.8379 -0.0965,0.1236 -0.2225,0.2289 -0.379,0.315 -0.1712,0.0952 -0.3273,0.1346 -0.4668,0.1167 0.1304,0.2646 0.0882,0.5354 -0.1262,0.8144 -0.2707,0.3511 -0.5662,0.5151 -0.8876,0.4914 0.1265,0.2695 0.1334,0.5894 -0.1293,0.8122l-0.2365 0.2007 -0.4663 -0.3637 0.1648 -0.2112c0.0653,-0.0838 0.0846,-0.1908 0.0594,-0.3232 -0.0258,-0.1314 -0.0813,-0.231 -0.1669,-0.2978 -0.0117,-0.0091 -0.0278,-0.0187 -0.0504,-0.0299l-1.5731 -0.7776c0.0621,-0.174 0.1386,-0.3805 0.2276,-0.6212l1.4073 0.6953c0.2753,0.135 0.4485,0.2121 0.5214,0.2329 0.2483,0.0652 0.4343,0.0194 0.5582,-0.1393 0.0797,-0.1022 0.0964,-0.216 0.0501,-0.3414 -0.0367,-0.1054 -0.1101,-0.2001 -0.2182,-0.2845 -0.0437,-0.0341 -0.0913,-0.0635 -0.1419,-0.0889l-1.4437 -0.6907 0.2096 -0.6382 1.4437 0.6908c0.244,0.1167 0.4271,0.1891 0.5474,0.2156 0.2489,0.0563 0.4301,0.0128 0.5424,-0.1313 0.0813,-0.1041 0.0964,-0.2238 0.0463,-0.3585 -0.0435,-0.1169 -0.121,-0.2181 -0.2311,-0.304 -0.0554,-0.0432 -0.1102,-0.0734 -0.1635,-0.0915l-1.5024 -0.4969 0.1822 -0.6331 1.5828 0.4642z"/>
   <path id="_59363920" class="fil4" d="M32.454 42.5258l-0.1301 0.2342c-0.1404,0.2526 -0.3657,0.3886 -0.6766,0.4066 0.128,0.3112 0.1238,0.5733 0.0073,0.7979l-0.397 0.7654 -0.6433 -0.1799 0.3577 -0.712c0.0626,-0.1246 0.0745,-0.251 0.0196,-0.3861 -0.0491,-0.1303 -0.1365,-0.2297 -0.2606,-0.2986 -0.055,-0.0306 -0.1078,-0.0501 -0.1571,-0.0606l-1.6639 -0.2974 0.0526 -0.6742c0.3765,0.0468 1.1905,0.1884 2.4415,0.4259 0.1727,0.0323 0.2526,-0.032 0.3445,-0.1067l0.2242 -0.1818 0.4812 0.2673zm0.3741 0.585c-0.0084,0.0152 0.2011,0.1541 0.6273,0.4192 -0.1219,0.1356 -0.293,0.3951 -0.5141,0.7779 -0.2206,0.3817 -0.363,0.6684 -0.4277,0.8585l-0.6613 -0.3349c0.058,-0.1882 0.1985,-0.4844 0.4234,-0.8891 0.2453,-0.4414 0.4287,-0.7182 0.5524,-0.8316zm1.1571 1.441c-0.0873,0.114 -0.1636,0.2283 -0.2266,0.3417 -0.0671,0.1209 -0.1198,0.2385 -0.1602,0.3545l-0.6227 -0.346c0.0076,-0.0622 0.0581,-0.1811 0.1537,-0.3581 0.084,-0.1512 0.157,-0.2673 0.218,-0.3465l0.6378 0.3544z"/>
   <path id="_23732784" class="fil4" d="M31.362 44.4908l-0.2088 0.4779c-0.1394,0.3189 -0.3813,0.5057 -0.7273,0.5634 -0.2977,0.0491 -0.6143,-0.0004 -0.9503,-0.1472 -1.0341,-0.452 -1.9658,-1.0734 -2.7935,-1.865l0.4446 -0.5117c0.2926,0.3017 0.7183,0.6319 1.2799,0.9932 0.5045,0.3256 0.9378,0.5676 1.3009,0.7263 0.232,0.1014 0.4143,0.1406 0.5485,0.117 0.1677,-0.0291 0.2877,-0.159 0.3955,-0.3715l0.1077 -0.2119 0.6028 0.2295z"/>
   <path id="_70194640" class="fil4" d="M29.051 49.2868l-0.1512 0.4842c-0.1037,0.3322 -0.3236,0.5447 -0.6612,0.6396 -0.2904,0.0816 -0.6106,0.0669 -0.9607,-0.0422 -1.0774,-0.3361 -2.0715,-0.8518 -2.9809,-1.548l0.3859 -0.5572c0.3239,0.2677 0.7832,0.5493 1.381,0.847 0.5371,0.2684 0.9943,0.4615 1.3726,0.5795 0.2417,0.0754 0.4273,0.0942 0.558,0.0563 0.1633,-0.0473 0.2775,-0.1865 0.3524,-0.4126l0.0467 -0.1407 0.6574 0.0941z"/>
   <path id="_59428168" class="fil4" d="M29.5658 45.8848c0.2108,0.0811 0.3421,0.2626 0.3919,0.5424 0.0425,0.2438 0.0212,0.4778 -0.0656,0.7037l-0.9248 2.4038 -0.6142 -0.2363 0.1791 -0.4655c-0.1832,-0.0017 -0.4073,-0.0522 -0.6734,-0.1546 -0.2502,-0.0962 -0.4698,-0.2681 -0.6588,-0.5127 -0.2126,-0.2763 -0.303,-0.5571 -0.2739,-0.8422l-0.058 0.02 -0.2913 -0.5116c0.3361,-0.3099 0.8082,-0.5741 1.4173,-0.7923 0.6804,-0.2449 1.2041,-0.2961 1.5717,-0.1547zm-0.4115 0.6156c-0.2224,-0.0855 -0.617,-0.0124 -1.1819,0.2213 0.0531,0.01 0.1125,0.0275 0.1805,0.0536 0.1671,0.0643 0.3364,0.1573 0.5095,0.2781 0.2077,0.1447 0.3406,0.2805 0.3973,0.4082l0.1796 -0.4668c0.1033,-0.2685 0.0752,-0.4327 -0.085,-0.4944zm-0.8824 1.1039c-0.107,-0.0901 -0.2783,-0.1812 -0.5156,-0.2725 -0.1798,-0.0691 -0.2781,-0.0818 -0.2945,-0.0391 -0.031,0.0806 0.0387,0.212 0.2095,0.3941 0.1466,0.1556 0.2711,0.2617 0.3737,0.3184 0.1078,0.06 0.2438,0.1123 0.4044,0.1555 0.1807,0.0497 0.2782,0.0541 0.2928,0.0162 0.0346,-0.09 -0.1221,-0.2812 -0.4703,-0.5726z"/>
   <path id="_70205152" class="fil4" d="M24.2857 70.3528l4.473 -0.8085 0.5544 3.0671 -0.7572 0.1368 -0.391 -2.1631 -1.058 0.1912 0.3375 1.8674 -0.7571 0.1368 -0.3375 -1.8673 -1.9007 0.3436 -0.1634 -0.904zm3.2321 6.1668c0.2611,-0.124 0.5453,-0.1793 0.8509,-0.1674 0.305,0.0133 0.5792,0.1069 0.8194,0.2821 0.2412,0.1749 0.4315,0.4079 0.5699,0.6995 0.2134,0.4493 0.2424,0.8877 0.0865,1.3145 -0.1558,0.4267 -0.4567,0.7453 -0.9032,0.9573 -0.4493,0.2134 -0.8911,0.2451 -1.325,0.0963 -0.4345,-0.15 -0.7551,-0.4451 -0.9644,-0.8859 -0.1299,-0.2734 -0.1918,-0.5615 -0.1859,-0.8677 0.0057,-0.3062 0.0969,-0.5803 0.2737,-0.8225 0.1772,-0.2411 0.436,-0.4437 0.7781,-0.6062zm0.3412 0.8268c-0.2954,0.1403 -0.4878,0.3172 -0.5779,0.5323 -0.0905,0.214 -0.0867,0.4242 0.0109,0.6298 0.0976,0.2055 0.2577,0.3404 0.4804,0.4045 0.223,0.0651 0.4837,0.0269 0.7829,-0.1152 0.2907,-0.1381 0.4822,-0.3146 0.5726,-0.5286 0.091,-0.2131 0.0877,-0.4224 -0.0099,-0.6279 -0.0977,-0.2056 -0.2582,-0.3414 -0.4813,-0.4064 -0.2235,-0.0662 -0.4833,-0.0283 -0.7777,0.1115zm-1.186 -4.2581c0.2847,-0.0495 0.5733,-0.0267 0.8646,0.0666 0.2903,0.0945 0.5294,0.258 0.7139,0.4912 0.1856,0.2331 0.3065,0.5085 0.3618,0.8265 0.0853,0.4901 -0.0041,0.9203 -0.2686,1.2897 -0.2644,0.3694 -0.6396,0.5958 -1.1266,0.6805 -0.49,0.0853 -0.9242,-0.0024 -1.3024,-0.262 -0.3784,-0.2608 -0.6083,-0.6311 -0.692,-1.1117 -0.0519,-0.2983 -0.0344,-0.5924 0.0532,-0.8859 0.0875,-0.2934 0.2488,-0.5331 0.484,-0.7191 0.2353,-0.1849 0.5389,-0.3108 0.9121,-0.3758zm0.1073 0.888c-0.3223,0.0561 -0.555,0.175 -0.6994,0.3581 -0.1445,0.182 -0.1971,0.3855 -0.1581,0.6097 0.039,0.2242 0.1571,0.397 0.3545,0.5184 0.1975,0.1225 0.4589,0.1554 0.7852,0.0987 0.317,-0.0552 0.5488,-0.174 0.6932,-0.356 0.1448,-0.181 0.1976,-0.3835 0.1586,-0.6077 -0.039,-0.2242 -0.1574,-0.398 -0.3549,-0.5204 -0.1976,-0.1236 -0.458,-0.1567 -0.7791,-0.1008zm0.7891 6.7903l4.0717 -2.0204 0.3872 0.7803 -4.0717 2.0204 -0.3872 -0.7803zm5.6427 8.4442l3.3219 -3.1027 0.9376 1.004 -1.7034 2.7191 2.8224 -1.521 0.9399 1.0062 -3.3219 3.1027 -0.5816 -0.6227 2.615 -2.4424 -3.2312 1.7826 -0.6032 -0.6458 2.001 -3.0998 -2.615 2.4424 -0.5815 -0.6226zm58.2053 -0.6669c-0.2356,-0.1674 -0.4224,-0.3885 -0.5612,-0.6611 -0.1371,-0.2727 -0.1892,-0.5577 -0.1533,-0.8529 0.0349,-0.2959 0.1455,-0.5756 0.3325,-0.8387 0.2881,-0.4055 0.6567,-0.6447 1.1053,-0.7167 0.4485,-0.0722 0.8734,0.0351 1.2763,0.3214 0.4055,0.2882 0.6487,0.6584 0.7304,1.1098 0.081,0.4524 -0.0202,0.8763 -0.3029,1.274 -0.1753,0.2467 -0.3966,0.4413 -0.6668,0.5856 -0.27,0.1443 -0.5538,0.1984 -0.8515,0.1622 -0.2969,-0.0371 -0.6,-0.1641 -0.9088,-0.3836zm0.5553 -0.7011c0.2667,0.1895 0.515,0.2711 0.7466,0.2448 0.231,-0.0253 0.4126,-0.1312 0.5445,-0.3167 0.1318,-0.1855 0.1714,-0.391 0.1188,-0.6167 -0.052,-0.2265 -0.2125,-0.4354 -0.4825,-0.6273 -0.2623,-0.1864 -0.5098,-0.2674 -0.7407,-0.242 -0.2304,0.0246 -0.4115,0.1296 -0.5433,0.315 -0.1319,0.1855 -0.1721,0.3919 -0.12,0.6184 0.0512,0.2274 0.211,0.4357 0.4766,0.6245zm8.3843 -10.9452l-4.3159 -1.4263 0.2733 -0.8271 4.3159 1.4263 -0.2733 0.8271zm-27.2921 22.0686l-0.7994 0.081c-0.0025,-0.3307 0.0791,-0.5986 0.2453,-0.806 0.1674,-0.2067 0.4554,-0.3698 0.8663,-0.4878 0.3743,-0.1076 0.6648,-0.1427 0.8734,-0.1068 0.2075,0.0362 0.3688,0.111 0.4822,0.2259 0.1135,0.115 0.2226,0.3534 0.3273,0.7176l0.2717 0.9801c0.0798,0.2777 0.1521,0.4794 0.2175,0.6038 0.0642,0.1235 0.156,0.2514 0.2724,0.3808l-0.829 0.2382c-0.0374,-0.0498 -0.0886,-0.1242 -0.1514,-0.2241 -0.0275,-0.046 -0.047,-0.0756 -0.0578,-0.0901 -0.1034,0.1806 -0.2261,0.3281 -0.3688,0.445 -0.1428,0.116 -0.3068,0.2006 -0.4919,0.2537 -0.3256,0.0936 -0.6083,0.079 -0.8461,-0.0432 -0.2389,-0.1229 -0.3968,-0.3198 -0.4746,-0.5904 -0.0511,-0.178 -0.0543,-0.35 -0.0092,-0.5149 0.0451,-0.1649 0.1345,-0.3062 0.2667,-0.4245 0.1323,-0.1185 0.3364,-0.2475 0.6102,-0.3868 0.3695,-0.1854 0.6212,-0.3327 0.7536,-0.439l-0.0239 -0.0834c-0.0465,-0.1617 -0.1188,-0.2643 -0.2181,-0.3106 -0.0989,-0.0454 -0.2584,-0.037 -0.4791,0.0264 -0.1495,0.0429 -0.257,0.1058 -0.3235,0.1888 -0.0668,0.0819 -0.1043,0.2039 -0.1138,0.3663zm1.3151 0.3577c-0.0966,0.0663 -0.2541,0.1578 -0.4728,0.2746 -0.2176,0.1165 -0.3551,0.2089 -0.4139,0.2764 -0.0864,0.1096 -0.1132,0.223 -0.079,0.3421 0.0339,0.1179 0.1066,0.2061 0.2186,0.2664 0.112,0.0603 0.2352,0.0711 0.3705,0.0322 0.1515,-0.0435 0.2807,-0.1345 0.3896,-0.2727 0.0801,-0.1045 0.1197,-0.216 0.1196,-0.3349 0.0019,-0.0777 -0.0271,-0.2169 -0.0847,-0.4173l-0.0479 -0.1668zm-43.6901 -17.7546l-0.3082 -0.742c0.316,-0.0979 0.596,-0.097 0.8426,0.0022 0.2462,0.1007 0.4854,0.3294 0.717,0.6888 0.211,0.3274 0.3284,0.5954 0.3541,0.8054 0.0253,0.2092 0.0002,0.3852 -0.0771,0.5269 -0.0773,0.1418 -0.2741,0.3151 -0.5926,0.5204l-0.8601 0.543c-0.2428,0.1565 -0.4151,0.2839 -0.5153,0.3824 -0.0998,0.0971 -0.1957,0.2219 -0.2861,0.3708l-0.4672 -0.7251c0.0369,-0.0502 0.0934,-0.1207 0.1709,-0.2096 0.0361,-0.0396 0.0588,-0.0669 0.0696,-0.0814 -0.2027,-0.0469 -0.3794,-0.1218 -0.5325,-0.2247 -0.1523,-0.1033 -0.2806,-0.2359 -0.3849,-0.3978 -0.1835,-0.2847 -0.2511,-0.5596 -0.2027,-0.8225 0.0488,-0.2643 0.1918,-0.4723 0.4284,-0.6248 0.1557,-0.1003 0.3194,-0.153 0.4903,-0.1574 0.171,-0.0044 0.332,0.0404 0.4835,0.1329 0.1515,0.0924 0.334,0.2506 0.5463,0.4726 0.2842,0.3003 0.4978,0.4989 0.6378,0.595l0.0729 -0.047c0.1415,-0.0912 0.2188,-0.19 0.2345,-0.2985 0.015,-0.1077 -0.0391,-0.258 -0.1635,-0.4511 -0.0842,-0.1307 -0.1754,-0.2155 -0.2741,-0.2552 -0.0977,-0.0403 -0.2253,-0.0411 -0.3836,-0.0033zm0.037 1.3623c-0.0914,-0.0733 -0.2244,-0.1977 -0.3994,-0.3734 -0.1743,-0.1747 -0.3024,-0.2797 -0.384,-0.3165 -0.1298,-0.0511 -0.2462,-0.0441 -0.3503,0.023 -0.1032,0.0665 -0.1666,0.1615 -0.192,0.2862 -0.0255,0.1246 -0.0003,0.2457 0.076,0.364 0.0854,0.1325 0.2098,0.2299 0.3735,0.2943 0.1231,0.0466 0.2414,0.0523 0.3552,0.018 0.0749,-0.0206 0.1998,-0.0886 0.3751,-0.2015l0.1459 -0.0941zm1.1827 4.5164l-0.4852 -0.6469 0.387 -0.2902c-0.2314,0.0055 -0.4384,-0.0377 -0.6219,-0.1288 -0.1836,-0.0912 -0.3305,-0.2113 -0.4423,-0.3603 -0.2272,-0.3031 -0.2997,-0.6536 -0.2178,-1.0524 0.0826,-0.398 0.3417,-0.7616 0.7777,-1.0886 0.447,-0.3353 0.8653,-0.485 1.2548,-0.449 0.3894,0.0359 0.7056,0.2141 0.9463,0.535 0.2203,0.2938 0.2887,0.6407 0.2054,1.0393l1.3097 -0.9823 0.5226 0.6968 -3.6363 2.7274zm-0.021 -2.8908c-0.2812,0.2109 -0.4551,0.4022 -0.5228,0.5748 -0.0974,0.2476 -0.0708,0.4736 0.0804,0.6752 0.1206,0.1608 0.2915,0.2457 0.5123,0.256 0.22,0.0096 0.4666,-0.0868 0.7376,-0.29 0.3022,-0.2267 0.4793,-0.4456 0.5311,-0.6536 0.051,-0.2089 0.0131,-0.3988 -0.1152,-0.5699 -0.1238,-0.165 -0.2934,-0.2534 -0.5084,-0.2668 -0.2151,-0.0133 -0.4535,0.0781 -0.715,0.2743zm5.8902 6.7032c0.1943,-0.2139 0.4362,-0.373 0.7233,-0.4783 0.2872,-0.1037 0.5763,-0.1214 0.8652,-0.0506 0.2895,0.07 0.5541,0.2131 0.7931,0.4301 0.3682,0.3345 0.5617,0.7289 0.5798,1.1829 0.0181,0.4539 -0.139,0.863 -0.4714,1.2289 -0.3344,0.3682 -0.731,0.5655 -1.1889,0.5929 -0.4588,0.0265 -0.8676,-0.1246 -1.2288,-0.4526 -0.224,-0.2035 -0.3908,-0.4465 -0.5019,-0.7319 -0.1111,-0.2853 -0.131,-0.5735 -0.0595,-0.8647 0.0721,-0.2904 0.2345,-0.5762 0.4891,-0.8567zm0.63 0.635c-0.22,0.2421 -0.3306,0.4789 -0.3321,0.7121 -0.0024,0.2323 0.0811,0.4253 0.2496,0.5783 0.1684,0.153 0.3677,0.2168 0.598,0.1915 0.2311,-0.0246 0.4577,-0.1591 0.6804,-0.4043 0.2163,-0.2382 0.3263,-0.4742 0.3286,-0.7066 0.0031,-0.2317 -0.0796,-0.424 -0.248,-0.577 -0.1685,-0.153 -0.3686,-0.2175 -0.5997,-0.1928 -0.2318,0.0238 -0.4577,0.1575 -0.6768,0.3988zm10.6794 5.7612l-0.6929 -0.4066c0.1933,-0.2685 0.4173,-0.4364 0.6739,-0.5057 0.2572,-0.0679 0.5859,-0.0295 0.9872,0.1179 0.3656,0.1343 0.6208,0.2775 0.7679,0.4296 0.1461,0.1518 0.2321,0.3074 0.2557,0.4671 0.0237,0.1598 -0.029,0.4166 -0.1596,0.7723l-0.3595 0.9515c-0.0996,0.2712 -0.1603,0.4767 -0.181,0.6156 -0.0212,0.1377 -0.0226,0.295 -0.0051,0.4683l-0.8097 -0.2973c-0.0008,-0.0623 0.0019,-0.1526 0.0102,-0.2703 0.005,-0.0533 0.0067,-0.0888 0.0065,-0.1069 -0.19,0.0847 -0.3762,0.1313 -0.5603,0.1414 -0.1838,0.0092 -0.3661,-0.0194 -0.5469,-0.0858 -0.3179,-0.1167 -0.5375,-0.2955 -0.6572,-0.5345 -0.1203,-0.2403 -0.1314,-0.4925 -0.0344,-0.7567 0.0639,-0.1739 0.1628,-0.3146 0.2966,-0.421 0.1338,-0.1065 0.2894,-0.1677 0.466,-0.1851 0.1766,-0.0175 0.4176,-0.0011 0.7208,0.0482 0.4077,0.0686 0.6978,0.0984 0.8674,0.0908l0.0299 -0.0815c0.0581,-0.1579 0.0602,-0.2834 0.0075,-0.3794 -0.053,-0.095 -0.1866,-0.1825 -0.4023,-0.2616 -0.1459,-0.0536 -0.2698,-0.0664 -0.3725,-0.0387 -0.1022,0.0267 -0.2046,0.1029 -0.3082,0.2284zm0.8501 1.0653c-0.1171,-0.0035 -0.2983,-0.0227 -0.5437,-0.0576 -0.2444,-0.0344 -0.4099,-0.0411 -0.4972,-0.0214 -0.1344,0.0375 -0.2231,0.1131 -0.2658,0.2295 -0.0423,0.1151 -0.0357,0.2292 0.0191,0.344 0.0548,0.1148 0.1478,0.1963 0.28,0.2448 0.1479,0.0544 0.3059,0.0572 0.4754,0.01 0.1264,-0.037 0.2241,-0.1037 0.2943,-0.1996 0.0474,-0.0616 0.1062,-0.1911 0.1781,-0.3868l0.0598 -0.1629zm-5.4749 -3.3937l-0.6119 -0.5206c0.2369,-0.2309 0.4866,-0.3575 0.7514,-0.3812 0.265,-0.0223 0.5821,0.0725 0.9517,0.2872 0.3369,0.1956 0.5633,0.3809 0.6818,0.5563 0.1176,0.1748 0.1754,0.3429 0.1709,0.5043 -0.0043,0.1615 -0.1008,0.4053 -0.2911,0.733l-0.519 0.8747c-0.1451,0.2498 -0.2405,0.4417 -0.285,0.575 -0.0447,0.1319 -0.0733,0.2866 -0.0861,0.4603l-0.7459 -0.4332c0.01,-0.0615 0.0283,-0.15 0.0569,-0.2644 0.0141,-0.0517 0.022,-0.0864 0.0249,-0.1042 -0.2018,0.0505 -0.3932,0.0641 -0.5764,0.0421 -0.1825,-0.0227 -0.3571,-0.0825 -0.5237,-0.1792 -0.2929,-0.1701 -0.4781,-0.3842 -0.5546,-0.6404 -0.0768,-0.2575 -0.044,-0.5078 0.0974,-0.7512 0.093,-0.1602 0.2148,-0.2816 0.365,-0.3632 0.1503,-0.0817 0.3141,-0.115 0.491,-0.1015 0.177,0.0134 0.4115,0.0712 0.7015,0.1724 0.3897,0.1382 0.6703,0.2179 0.8386,0.2398l0.0436 -0.0751c0.0845,-0.1455 0.1084,-0.2687 0.0732,-0.3724 -0.0358,-0.1028 -0.1522,-0.212 -0.3509,-0.3274 -0.1344,-0.0781 -0.2542,-0.1122 -0.3601,-0.1027 -0.1054,0.0086 -0.2194,0.066 -0.3432,0.1716zm0.6526 1.1965c-0.1147,-0.0237 -0.2898,-0.0741 -0.5255,-0.151 -0.2347,-0.0763 -0.3966,-0.1115 -0.486,-0.1072 -0.1389,0.0136 -0.2393,0.0727 -0.3015,0.1799 -0.0616,0.1061 -0.0749,0.2196 -0.0409,0.3421 0.0341,0.1226 0.1116,0.219 0.2333,0.2897 0.1363,0.0791 0.2914,0.1093 0.4665,0.0922 0.1309,-0.0145 0.2387,-0.0632 0.3245,-0.1456 0.0574,-0.0524 0.1377,-0.1697 0.2424,-0.35l0.0872 -0.1501zm33.7905 0.2781l-0.7682 0.2353c-0.067,-0.3239 -0.0392,-0.6025 0.0833,-0.8384 0.124,-0.2354 0.3746,-0.4515 0.7546,-0.6474 0.3462,-0.1785 0.6243,-0.2695 0.8358,-0.275 0.2106,-0.0049 0.3834,0.0369 0.517,0.1276 0.1337,0.0906 0.2873,0.3032 0.4609,0.6399l0.4577 0.9084c0.1324,0.2568 0.2426,0.4405 0.331,0.5497 0.0871,0.1087 0.202,0.2162 0.3415,0.3204l-0.7667 0.3953c-0.0464,-0.0415 -0.1111,-0.1046 -0.1922,-0.1902 -0.0359,-0.0398 -0.0608,-0.0651 -0.0743,-0.0772 -0.0661,0.1973 -0.1577,0.3659 -0.2748,0.5084 -0.1175,0.1416 -0.2619,0.2565 -0.4331,0.3448 -0.301,0.1552 -0.5812,0.196 -0.8382,0.1226 -0.2583,-0.074 -0.4516,-0.2364 -0.5806,-0.4866 -0.0849,-0.1646 -0.1216,-0.3326 -0.1095,-0.5031 0.0121,-0.1706 0.0722,-0.3266 0.1788,-0.4685 0.1066,-0.1419 0.2816,-0.3083 0.523,-0.4982 0.3263,-0.254 0.5445,-0.4475 0.6536,-0.5776l-0.0397 -0.0771c-0.0772,-0.1496 -0.1681,-0.2361 -0.2745,-0.2622 -0.1058,-0.0252 -0.2606,0.0141 -0.4648,0.1194 -0.1382,0.0712 -0.2314,0.1538 -0.2804,0.2482 -0.0495,0.0933 -0.0626,0.2203 -0.0402,0.3815zm1.3596 0.0944c-0.0818,0.0838 -0.2185,0.2043 -0.4101,0.3615 -0.1907,0.1567 -0.3076,0.2741 -0.3521,0.3517 -0.0634,0.1244 -0.0675,0.2409 -0.0108,0.351 0.0563,0.109 0.1447,0.1813 0.2664,0.2187 0.1216,0.0373 0.2445,0.0239 0.3696,-0.0407 0.1401,-0.0722 0.2491,-0.1867 0.3289,-0.3434 0.0583,-0.1181 0.0753,-0.2352 0.0521,-0.3518 -0.0133,-0.0766 -0.0689,-0.2074 -0.1645,-0.3927l-0.0795 -0.1543zm-40.6491 -1.9904l2.6808 -3.6708 0.7034 0.5137 -0.9656 1.3222c0.3975,-0.0885 0.7444,-0.0252 1.0418,0.192 0.3239,0.2366 0.5054,0.5499 0.5471,0.9395 0.041,0.389 -0.099,0.8031 -0.4198,1.2425 -0.3314,0.4537 -0.6959,0.725 -1.0912,0.8123 -0.3954,0.0873 -0.7471,0.018 -1.0557,-0.2074 -0.1521,-0.1111 -0.2742,-0.2579 -0.3665,-0.442 -0.0922,-0.184 -0.1378,-0.3889 -0.136,-0.6157l-0.2853 0.3906 -0.653 -0.4769zm1.7113 -0.8772c-0.201,0.2753 -0.306,0.5105 -0.3164,0.706 -0.0144,0.2764 0.079,0.4876 0.2816,0.6355 0.1547,0.113 0.3359,0.143 0.542,0.0905 0.2062,-0.0526 0.4138,-0.2221 0.6222,-0.5075 0.2217,-0.3035 0.3265,-0.5636 0.3143,-0.7783 -0.0114,-0.2142 -0.1031,-0.3847 -0.2758,-0.5108 -0.1684,-0.1229 -0.3566,-0.1595 -0.5641,-0.1105 -0.208,0.0499 -0.4084,0.2077 -0.6038,0.4751zm60.4957 -21.9759l-4.4791 -0.7745 0.1485 -0.8583 1.6132 0.279c-0.2556,-0.317 -0.3527,-0.656 -0.2899,-1.0189 0.0683,-0.3952 0.2687,-0.6968 0.5993,-0.907 0.3305,-0.2093 0.7638,-0.2675 1.2998,-0.1748 0.5537,0.0957 0.9584,0.3021 1.2121,0.6177 0.2536,0.3156 0.3474,0.6615 0.2823,1.0381 -0.0321,0.1856 -0.1096,0.3602 -0.2336,0.5245 -0.124,0.1643 -0.2874,0.2961 -0.4915,0.395l0.4766 0.0825 -0.1377 0.7967zm-1.5453 -1.1447c0.3358,0.0581 0.5932,0.0479 0.7731,-0.0295 0.2542,-0.1097 0.402,-0.2871 0.4447,-0.5342 0.0326,-0.1888 -0.0208,-0.3645 -0.1593,-0.526 -0.1386,-0.1615 -0.3826,-0.2724 -0.7308,-0.3326 -0.3703,-0.064 -0.65,-0.0425 -0.837,0.0636 -0.1869,0.1052 -0.299,0.263 -0.3354,0.4737 -0.0356,0.2055 0.0152,0.3904 0.1511,0.5546 0.137,0.1643 0.3673,0.274 0.6936,0.3304zm-38.1098 30.1907l0.8932 -0.0878c0.0529,0.3005 0.1619,0.5207 0.327,0.6614 0.1641,0.1397 0.3853,0.2106 0.6647,0.2106 0.2952,0 0.5185,-0.0624 0.6678,-0.1884 0.1502,-0.1248 0.2254,-0.2709 0.2254,-0.4381 0,-0.108 -0.0318,-0.199 -0.0953,-0.2741 -0.0624,-0.0762 -0.1725,-0.1418 -0.3302,-0.1969 -0.1069,-0.0381 -0.3524,-0.1037 -0.7344,-0.1989 -0.4922,-0.1217 -0.8372,-0.272 -1.0351,-0.4498 -0.2794,-0.2498 -0.4191,-0.5546 -0.4191,-0.9144 0,-0.2318 0.0656,-0.4477 0.1969,-0.6498 0.1312,-0.2011 0.3206,-0.3546 0.5672,-0.4604 0.2477,-0.1048 0.5451,-0.1577 0.8943,-0.1577 0.5715,0 1.0001,0.1249 1.2891,0.3746 0.2878,0.2509 0.4392,0.5842 0.454,1.0023l-0.9176 0.0402c-0.0391,-0.2339 -0.1238,-0.4022 -0.2529,-0.5038 -0.1291,-0.1026 -0.3228,-0.1534 -0.5811,-0.1534 -0.2667,0 -0.4762,0.054 -0.6265,0.164 -0.0974,0.0699 -0.146,0.1641 -0.146,0.2815 0,0.108 0.0455,0.2001 0.1365,0.2763 0.1153,0.0973 0.3969,0.1989 0.8435,0.3037 0.4466,0.1058 0.7768,0.2148 0.9906,0.327 0.2138,0.1133 0.381,0.2667 0.5027,0.4625 0.1206,0.1958 0.181,0.4371 0.181,0.7239 0,0.2604 -0.072,0.5048 -0.217,0.7313 -0.145,0.2276 -0.3492,0.3969 -0.6138,0.507 -0.2646,0.1111 -0.5948,0.1661 -0.9896,0.1661 -0.5746,0 -1.016,-0.1323 -1.3239,-0.3979 -0.308,-0.2656 -0.4922,-0.653 -0.5514,-1.161zm23.6567 -7.8753l0.7014 -0.56c0.208,0.2233 0.4193,0.3486 0.6344,0.3767 0.2137,0.0279 0.4378,-0.0331 0.6722,-0.1852 0.2476,-0.1608 0.4009,-0.3347 0.4576,-0.5217 0.058,-0.1864 0.0415,-0.3499 -0.0495,-0.4902 -0.0588,-0.0905 -0.135,-0.1496 -0.2292,-0.178 -0.0938,-0.0299 -0.2219,-0.025 -0.3842,0.0147 -0.1104,0.0262 -0.352,0.1048 -0.7243,0.233 -0.4791,0.1659 -0.8503,0.2277 -1.1131,0.1863 -0.3704,-0.0574 -0.6535,-0.237 -0.8494,-0.5388 -0.1262,-0.1944 -0.1887,-0.4112 -0.1886,-0.6522 0.0005,-0.2402 0.0758,-0.472 0.225,-0.695 0.1507,-0.2228 0.3714,-0.4291 0.6643,-0.6192 0.4794,-0.3112 0.9069,-0.4398 1.2852,-0.3877 0.378,0.0537 0.6865,0.2509 0.9266,0.5935l-0.7478 0.5333c-0.1602,-0.1749 -0.3228,-0.2699 -0.4865,-0.2849 -0.1641,-0.0157 -0.3542,0.0471 -0.5709,0.1878 -0.2237,0.1452 -0.37,0.3045 -0.4362,0.4786 -0.0436,0.1117 -0.0331,0.2172 0.0308,0.3157 0.0588,0.0905 0.1471,0.143 0.265,0.1574 0.1496,0.0188 0.4412,-0.0493 0.8728,-0.2045 0.4322,-0.1545 0.7685,-0.2428 1.009,-0.2651 0.241,-0.0214 0.4647,0.0162 0.6734,0.1142 0.2078,0.0986 0.3898,0.2681 0.546,0.5086 0.1418,0.2185 0.2145,0.4627 0.2162,0.7316 0.0023,0.2698 -0.0768,0.523 -0.2388,0.7595 -0.1615,0.2372 -0.4085,0.4631 -0.7397,0.6781 -0.4819,0.3128 -0.9242,0.4422 -1.3271,0.3871 -0.4029,-0.0551 -0.7683,-0.2798 -1.0946,-0.6736zm2.0142 -3.5555l0.5652 -0.5841 0.3476 0.3364c-0.0466,-0.1909 -0.0438,-0.3871 0.0076,-0.5877 0.0505,-0.2014 0.1525,-0.3813 0.3048,-0.5386 0.2657,-0.2746 0.5996,-0.4035 0.9996,-0.3861 0.4007,0.0166 0.7938,0.2114 1.1786,0.5839 0.3947,0.382 0.6085,0.7759 0.6413,1.1803 0.0321,0.4051 -0.0851,0.7454 -0.3507,1.0199 -0.1267,0.1308 -0.2674,0.2244 -0.4221,0.2808 -0.1548,0.0549 -0.3519,0.0806 -0.5922,0.0763l1.1925 1.1541 -0.6058 0.6259 -3.2664 -3.1611zm1.7429 0.4863c0.2654,0.2569 0.5132,0.3951 0.7417,0.4115 0.2286,0.018 0.4168,-0.0487 0.5641,-0.2008 0.1405,-0.1452 0.199,-0.3228 0.1761,-0.532 -0.0229,-0.2093 -0.1674,-0.4434 -0.4328,-0.7003 -0.2487,-0.2407 -0.4814,-0.3685 -0.6979,-0.3852 -0.2166,-0.0166 -0.3959,0.0484 -0.5379,0.1952 -0.148,0.1529 -0.2124,0.3364 -0.1916,0.5524 0.02,0.2153 0.1463,0.4348 0.3783,0.6592zm-20.5944 8.5304l0.8066 -0.1003 0.0597 0.48c0.0835,-0.1779 0.2087,-0.3289 0.3745,-0.4529 0.1658,-0.1252 0.3579,-0.2013 0.5753,-0.2283 0.3791,-0.0472 0.7201,0.0619 1.0206,0.3263 0.3017,0.2643 0.4856,0.6627 0.5517,1.1941 0.0678,0.5451 -0.0128,0.986 -0.2409,1.3215 -0.2292,0.3357 -0.5339,0.5271 -0.913,0.5743 -0.1807,0.0224 -0.3489,0.0071 -0.5048,-0.0461 -0.155,-0.0543 -0.3247,-0.1579 -0.5091,-0.3121l0.2048 1.6469 -0.8645 0.1075 -0.5609 -4.5109zm1.0523 1.4721c0.0456,0.3666 0.1519,0.6296 0.3195,0.7857 0.1668,0.1574 0.3552,0.2235 0.5653,0.1974 0.2005,-0.0249 0.3575,-0.1266 0.4709,-0.3038 0.1134,-0.1774 0.1477,-0.4504 0.1022,-0.8169 -0.0427,-0.3434 -0.1437,-0.5889 -0.3019,-0.7378 -0.1583,-0.1488 -0.3387,-0.2106 -0.5414,-0.1854 -0.2111,0.0263 -0.3764,0.1289 -0.4957,0.3101 -0.1195,0.1802 -0.1587,0.4304 -0.1189,0.7507zm-23.6737 -1.1897l-0.7966 -0.3521 1.3309 -3.0115 0.7396 0.3269 -0.1891 0.4279c0.2162,-0.1463 0.3895,-0.2294 0.5184,-0.2488 0.1298,-0.019 0.2586,-0.0014 0.3873,0.0555 0.182,0.0804 0.3341,0.2077 0.4579,0.3829l-0.5535 0.5849c-0.0955,-0.1452 -0.2011,-0.2439 -0.3163,-0.2948 -0.1123,-0.0496 -0.2195,-0.0611 -0.3242,-0.0334 -0.1055,0.0263 -0.2147,0.1111 -0.3302,0.2521 -0.1155,0.1411 -0.2867,0.4681 -0.513,0.9801l-0.4112 0.9303zm49.273 -13.2183l-0.4351 0.7545 -2.8523 -1.6446 0.4039 -0.7005 0.4052 0.2337c-0.1224,-0.2306 -0.1865,-0.4117 -0.192,-0.542 -0.005,-0.1311 0.0262,-0.2573 0.0965,-0.3792 0.0994,-0.1724 0.2422,-0.31 0.4295,-0.4145l0.5226 0.6128c-0.1546,0.0795 -0.264,0.174 -0.3269,0.2831 -0.0613,0.1063 -0.0842,0.2117 -0.0678,0.3188 0.0149,0.1077 0.0876,0.2253 0.2155,0.3552 0.1279,0.1299 0.4348,0.335 0.9197,0.6146l0.8812 0.5081zm-39.7354 15.108l0.8159 0.332c-0.1793,0.2862 -0.4039,0.4842 -0.6757,0.5933 -0.271,0.1105 -0.5834,0.1249 -0.9366,0.0456 -0.5586,-0.1256 -0.9308,-0.4002 -1.1171,-0.826 -0.146,-0.3398 -0.1693,-0.7334 -0.0692,-1.1785 0.1197,-0.5328 0.3529,-0.9185 0.6994,-1.1575 0.3455,-0.239 0.7315,-0.3106 1.1569,-0.215 0.4781,0.1074 0.8195,0.3501 1.0253,0.7283 0.2046,0.3779 0.2282,0.8909 0.0704,1.5399l-2.1302 -0.4788c-0.0504,0.2533 -0.0264,0.4648 0.0734,0.6337 0.0996,0.1699 0.248,0.277 0.4431,0.3209 0.1333,0.0299 0.2529,0.0189 0.36,-0.033 0.1073,-0.0529 0.2027,-0.1541 0.2844,-0.3049zm0.2416 -0.8482c0.0493,-0.2481 0.0283,-0.4492 -0.0638,-0.6044 -0.092,-0.1552 -0.2253,-0.2525 -0.3988,-0.2914 -0.1858,-0.0418 -0.3539,-0.008 -0.5051,0.1001 -0.151,0.1071 -0.2522,0.2775 -0.3024,0.5102l1.2701 0.2855zm12.0791 1.2261l0.8804 0.0322c-0.0704,0.3304 -0.2135,0.5933 -0.4315,0.789 -0.2168,0.1967 -0.5053,0.3173 -0.8643,0.3638 -0.5678,0.0735 -1.0116,-0.057 -1.3325,-0.3931 -0.2536,-0.2692 -0.4103,-0.631 -0.4689,-1.0834 -0.0701,-0.5416 0.0168,-0.9839 0.2604,-1.3271 0.2427,-0.343 0.5808,-0.5426 1.0132,-0.5985 0.4859,-0.0629 0.8898,0.0481 1.2127,0.3329 0.3218,0.2848 0.5197,0.7587 0.5939,1.4224l-2.1653 0.2803c0.0395,0.2552 0.1345,0.4457 0.2861,0.5701 0.1518,0.1255 0.3279,0.1753 0.5263,0.1496 0.1355,-0.0175 0.2441,-0.0689 0.3269,-0.1543 0.0827,-0.0865 0.1376,-0.2142 0.1626,-0.3839zm-0.0637 -0.8796c-0.0387,-0.25 -0.1273,-0.4318 -0.267,-0.546 -0.1396,-0.1143 -0.2982,-0.1599 -0.4745,-0.1371 -0.1889,0.0244 -0.3352,0.1139 -0.4402,0.2672 -0.1051,0.1523 -0.1419,0.3471 -0.1092,0.5829l1.2909 -0.167zm-17.3626 0.3481l1.1503 -4.3975 0.8436 0.2207 -0.6104 2.3334 1.2793 -0.8632 1.0382 0.2716 -1.3926 0.8783 0.6372 2.3273 -0.9082 -0.2376 -0.4274 -1.6401 -0.4997 0.308 -0.2667 1.0198 -0.8436 -0.2207zm7.5639 -2.8957l-0.1644 1.663c0.3124,-0.2988 0.6625,-0.4301 1.0511,-0.3917 0.2002,0.0198 0.3754,0.0754 0.5293,0.165 0.1528,0.0896 0.2645,0.1963 0.3342,0.3192 0.0697,0.1238 0.1129,0.2568 0.1286,0.3998 0.0168,0.142 0.01,0.3615 -0.019,0.6554l-0.19 1.922 -0.8668 -0.0857 0.1711 -1.7314c0.034,-0.3434 0.0386,-0.5631 0.0151,-0.6589 -0.0245,-0.096 -0.0752,-0.1744 -0.153,-0.2374 -0.0779,-0.063 -0.1793,-0.1007 -0.3047,-0.1131 -0.1443,-0.0142 -0.2762,0.0078 -0.3959,0.0672 -0.1206,0.0584 -0.2142,0.1554 -0.2798,0.2914 -0.0666,0.1359 -0.1135,0.3419 -0.1406,0.6168l-0.1623 1.6419 -0.8668 -0.0857 0.4471 -4.5234 0.8668 0.0856zm16.9403 -1.8747l0.5753 1.5689c0.1514,-0.4049 0.4095,-0.6754 0.7761,-0.8099 0.1888,-0.0692 0.3708,-0.0954 0.5484,-0.0816 0.1765,0.0142 0.3236,0.0617 0.4397,0.142 0.1166,0.0812 0.2134,0.1822 0.2897,0.3041 0.0769,0.1206 0.1663,0.3212 0.2679,0.5984l0.665 1.8133 -0.8178 0.2999 -0.599 -1.6335c-0.1188,-0.3239 -0.2102,-0.5238 -0.273,-0.5999 -0.0638,-0.0758 -0.1436,-0.1243 -0.241,-0.1472 -0.0975,-0.0228 -0.2053,-0.0126 -0.3236,0.0308 -0.1361,0.0499 -0.2453,0.1271 -0.3272,0.2327 -0.0832,0.1049 -0.1253,0.233 -0.1252,0.384 -0.0009,0.1514 0.0465,0.3573 0.1416,0.6166l0.568 1.549 -0.8177 0.2999 -1.565 -4.2676 0.8178 -0.2999zm9.4851 0.186l-0.7559 0.4327 -0.8348 -1.4586c-0.1767,-0.3086 -0.3073,-0.4985 -0.3915,-0.5711 -0.0837,-0.0716 -0.1774,-0.1118 -0.2789,-0.1208 -0.1009,-0.008 -0.203,0.0162 -0.3049,0.0745 -0.1314,0.0752 -0.2284,0.1783 -0.2911,0.3094 -0.0623,0.132 -0.0799,0.2676 -0.0506,0.4081 0.0292,0.1406 0.1351,0.3702 0.318,0.6899l0.7408 1.2942 -0.7559 0.4327 -1.6356 -2.8576 0.7018 -0.4016 0.2402 0.4198c0.0647,-0.4664 0.2864,-0.8078 0.6648,-1.0244 0.1663,-0.0952 0.337,-0.1527 0.509,-0.1718 0.1724,-0.0183 0.3208,-0.002 0.4451,0.0512 0.1243,0.0533 0.2344,0.1305 0.3298,0.2332 0.0963,0.1021 0.2068,0.2634 0.333,0.4838l1.0167 1.7764zm9.7251 -14.8353l0.619 0.3144 -0.2693 0.5303 1.1831 0.6011c0.2398,0.1218 0.3818,0.188 0.4267,0.1977 0.0449,0.0098 0.0885,0.0034 0.1331,-0.019 0.0438,-0.023 0.0795,-0.0606 0.1053,-0.1115 0.0369,-0.0727 0.0642,-0.1895 0.0846,-0.3512l0.6356 0.2398c-0.0147,0.2205 -0.0795,0.4439 -0.196,0.6732 -0.0709,0.1397 -0.1588,0.2541 -0.262,0.3429 -0.1043,0.0883 -0.2072,0.1393 -0.3087,0.1543 -0.1014,0.0149 -0.2205,-0.0006 -0.3585,-0.0445 -0.0977,-0.0295 -0.2851,-0.114 -0.5597,-0.2535l-1.2794 -0.6499 -0.1812 0.3567 -0.619 -0.3145 0.1812 -0.3567 -0.5841 -0.2967 -0.057 -1.0094 1.0369 0.5268 0.2694 -0.5303zm3.4915 -3.6248l0.6088 -0.7063c0.4025,0.3209 0.6519,0.6741 0.7487,1.061 0.0961,0.3855 0.0483,0.8037 -0.1438,1.2521 -0.2376,0.5545 -0.6228,0.9295 -1.1541,1.1244 -0.5324,0.1945 -1.1276,0.1513 -1.7842,-0.13 -0.6956,-0.2979 -1.1584,-0.7092 -1.3899,-1.2332 -0.2305,-0.5236 -0.221,-1.0779 0.0299,-1.6636 0.2188,-0.5107 0.5476,-0.8616 0.9868,-1.051 0.2598,-0.1144 0.5774,-0.1463 0.9529,-0.0984l-0.1586 0.9212c-0.2377,-0.0443 -0.4532,-0.0146 -0.6461,0.0892 -0.1926,0.1029 -0.3366,0.2669 -0.4325,0.4906 -0.1325,0.3094 -0.1295,0.6089 0.0107,0.897 0.1393,0.2875 0.458,0.5381 0.9561,0.7515 0.5283,0.2263 0.9451,0.2931 1.2505,0.1983 0.3061,-0.0934 0.5238,-0.2926 0.6538,-0.5961 0.0963,-0.2247 0.1078,-0.4477 0.034,-0.6705 -0.0729,-0.2223 -0.248,-0.4343 -0.523,-0.6362zm3.3718 -4.1049l-0.478 -0.1216c0.1405,0.1602 0.236,0.3472 0.2864,0.561 0.0492,0.2146 0.0476,0.4271 -0.0059,0.6374 -0.0545,0.2143 -0.1505,0.3941 -0.2871,0.5407 -0.1378,0.1462 -0.3014,0.2357 -0.4912,0.2692 -0.1896,0.0326 -0.4351,0.0105 -0.7356,-0.0659l-2.0186 -0.5135 0.2148 -0.8441 1.4657 0.3729c0.4492,0.1142 0.728,0.1688 0.8376,0.1628 0.1084,-0.0052 0.2027,-0.0412 0.2831,-0.1082 0.0804,-0.0669 0.1357,-0.1642 0.1678,-0.2904 0.0368,-0.1446 0.0307,-0.2838 -0.0193,-0.4177 -0.0511,-0.1342 -0.1287,-0.237 -0.2349,-0.3087 -0.1073,-0.072 -0.389,-0.1667 -0.8454,-0.2828l-1.3457 -0.3423 0.2147 -0.8441 3.1909 0.8117 -0.1993 0.7836z"/>
  </g>
 </g>
</svg>
